Courier Prime.ufo
<glyph name="plus" format="1">
  <advance width="1228"/>
  <unicode hex="002B"/>
  <outline>
    <contour>
      <point x="564" y="1026"/>
      <point x="546" y="1008"/>
      <point x="546" y="963" type="curve" smooth="yes"/>
      <point x="546" y="650" type="line"/>
      <point x="233" y="650" type="line" smooth="yes"/>
      <point x="188" y="650"/>
      <point x="170" y="632"/>
      <point x="170" y="582" type="curve" smooth="yes"/>
      <point x="170" y="532"/>
      <point x="188" y="514"/>
      <point x="233" y="514" type="curve" smooth="yes"/>
      <point x="546" y="514" type="line"/>
      <point x="546" y="201" type="line" smooth="yes"/>
      <point x="546" y="156"/>
      <point x="564" y="138"/>
      <point x="614" y="138" type="curve" smooth="yes"/>
      <point x="664" y="138"/>
      <point x="682" y="156"/>
      <point x="682" y="201" type="curve" smooth="yes"/>
      <point x="682" y="514" type="line"/>
      <point x="995" y="514" type="line" smooth="yes"/>
      <point x="1040" y="514"/>
      <point x="1058" y="532"/>
      <point x="1058" y="582" type="curve" smooth="yes"/>
      <point x="1058" y="632"/>
      <point x="1040" y="650"/>
      <point x="995" y="650" type="curve" smooth="yes"/>
      <point x="682" y="650" type="line"/>
      <point x="682" y="963" type="line" smooth="yes"/>
      <point x="682" y="1008"/>
      <point x="664" y="1026"/>
      <point x="614" y="1026" type="curve" smooth="yes"/>
    </contour>
  </outline>
</glyph>
<glyph name="comma" format="1">
  <advance width="1228"/>
  <unicode hex="002C"/>
  <outline>
    <contour>
      <point x="520" y="294" type="line" smooth="yes"/>
      <point x="492" y="294"/>
      <point x="473" y="280"/>
      <point x="468" y="254" type="curve" smooth="yes"/>
      <point x="374" y="-228" type="line" smooth="yes"/>
      <point x="366" y="-270"/>
      <point x="388" y="-294"/>
      <point x="444" y="-294" type="curve" smooth="yes"/>
      <point x="490" y="-294"/>
      <point x="518" y="-281"/>
      <point x="530" y="-253" type="curve" smooth="yes"/>
      <point x="742" y="231" type="line" smooth="yes"/>
      <point x="757" y="266"/>
      <point x="747" y="294"/>
      <point x="714" y="294" type="curve" smooth="yes"/>
    </contour>
  </outline>
</glyph>
<glyph name="period" format="1">
  <advance width="1228"/>
  <unicode hex="002E"/>
  <outline>
    <contour>
      <point x="519" y="300"/>
      <point x="479" y="282"/>
      <point x="479" y="237" type="curve" smooth="yes"/>
      <point x="479" y="53" type="line" smooth="yes"/>
      <point x="479" y="8"/>
      <point x="519" y="-10"/>
      <point x="614" y="-10" type="curve" smooth="yes"/>
      <point x="709" y="-10"/>
      <point x="749" y="8"/>
      <point x="749" y="53" type="curve" smooth="yes"/>
      <point x="749" y="237" type="line" smooth="yes"/>
      <point x="749" y="282"/>
      <point x="709" y="300"/>
      <point x="614" y="300" type="curve" smooth="yes"/>
    </contour>
  </outline>
</glyph>
<glyph name="slash" format="1">
  <advance width="1228"/>
  <unicode hex="002F"/>
  <outline>
    <contour>
      <point x="906" y="1394"/>
      <point x="882" y="1379"/>
      <point x="873" y="1358" type="curve" smooth="yes"/>
      <point x="201" y="-285" type="line" smooth="yes"/>
      <point x="185" y="-325"/>
      <point x="227" y="-355"/>
      <point x="290" y="-355" type="curve" smooth="yes"/>
      <point x="322" y="-355"/>
      <point x="346" y="-340"/>
      <point x="355" y="-319" type="curve" smooth="yes"/>
      <point x="1027" y="1324" type="line" smooth="yes"/>
      <point x="1043" y="1364"/>
      <point x="1001" y="1394"/>
      <point x="938" y="1394" type="curve" smooth="yes"/>
    </contour>
  </outline>
</glyph>
<glyph name="one" format="1">
  <advance width="1228"/>
  <unicode hex="0031"/>
  <outline>
    <contour>
      <point x="251" y="968" type="line" smooth="yes"/>
      <point x="221" y="950"/>
      <point x="208" y="915"/>
      <point x="234" y="870" type="curve" smooth="yes"/>
      <point x="261" y="823"/>
      <point x="294" y="823"/>
      <point x="320" y="839" type="curve" smooth="yes"/>
      <point x="569" y="994" type="line"/>
      <point x="569" y="108" type="line"/>
      <point x="719" y="108" type="line"/>
      <point x="719" y="1157" type="line" smooth="yes"/>
      <point x="719" y="1211"/>
      <point x="668" y="1224"/>
      <point x="628" y="1200" type="curve" smooth="yes"/>
    </contour>
    <contour>
      <point x="300" y="136" type="line" smooth="yes"/>
      <point x="255" y="136"/>
      <point x="237" y="118"/>
      <point x="237" y="68" type="curve" smooth="yes"/>
      <point x="237" y="18"/>
      <point x="255" y="0"/>
      <point x="300" y="0" type="curve" smooth="yes"/>
      <point x="974" y="0" type="line" smooth="yes"/>
      <point x="1019" y="0"/>
      <point x="1037" y="18"/>
      <point x="1037" y="68" type="curve" smooth="yes"/>
      <point x="1037" y="118"/>
      <point x="1019" y="136"/>
      <point x="974" y="136" type="curve" smooth="yes"/>
    </contour>
  </outline>
</glyph>
<glyph name="four" format="1">
  <advance width="1228"/>
  <unicode hex="0034"/>
  <outline>
    <contour>
      <point x="699" y="1209"/>
      <point x="669" y="1188"/>
      <point x="641" y="1148" type="curve" smooth="yes"/>
      <point x="157" y="475" type="line" smooth="yes"/>
      <point x="150" y="465"/>
      <point x="147" y="449"/>
      <point x="147" y="428" type="curve" smooth="yes"/>
      <point x="147" y="378"/>
      <point x="165" y="360"/>
      <point x="210" y="360" type="curve" smooth="yes"/>
      <point x="688" y="360" type="line"/>
      <point x="688" y="136" type="line"/>
      <point x="540" y="136" type="line" smooth="yes"/>
      <point x="495" y="136"/>
      <point x="477" y="118"/>
      <point x="477" y="68" type="curve" smooth="yes"/>
      <point x="477" y="18"/>
      <point x="495" y="0"/>
      <point x="540" y="0" type="curve" smooth="yes"/>
      <point x="970" y="0" type="line" smooth="yes"/>
      <point x="1015" y="0"/>
      <point x="1033" y="18"/>
      <point x="1033" y="68" type="curve" smooth="yes"/>
      <point x="1033" y="118"/>
      <point x="1015" y="136"/>
      <point x="970" y="136" type="curve" smooth="yes"/>
      <point x="838" y="136" type="line"/>
      <point x="838" y="360" type="line"/>
      <point x="1000" y="360" type="line" smooth="yes"/>
      <point x="1045" y="360"/>
      <point x="1063" y="378"/>
      <point x="1063" y="428" type="curve" smooth="yes"/>
      <point x="1063" y="478"/>
      <point x="1045" y="496"/>
      <point x="1000" y="496" type="curve" smooth="yes"/>
      <point x="838" y="496" type="line"/>
      <point x="838" y="1131" type="line" smooth="yes"/>
      <point x="838" y="1178"/>
      <point x="813" y="1209"/>
      <point x="751" y="1209" type="curve" smooth="yes"/>
    </contour>
    <contour>
      <point x="688" y="496" type="line"/>
      <point x="346" y="496" type="line"/>
      <point x="696" y="992" type="line"/>
    </contour>
  </outline>
</glyph>
<glyph name="five" format="1">
  <advance width="1228"/>
  <unicode hex="0035"/>
  <outline>
    <contour>
      <point x="351" y="1187" type="line" smooth="yes"/>
      <point x="295" y="1187"/>
      <point x="278" y="1168"/>
      <point x="276" y="1122" type="curve" smooth="yes"/>
      <point x="256" y="622" type="line" smooth="yes"/>
      <point x="254" y="576"/>
      <point x="275" y="557"/>
      <point x="331" y="557" type="curve" smooth="yes"/>
      <point x="354" y="557"/>
      <point x="370" y="560"/>
      <point x="381" y="567" type="curve" smooth="yes"/>
      <point x="446" y="612"/>
      <point x="513" y="638"/>
      <point x="608" y="638" type="curve" smooth="yes"/>
      <point x="759" y="638"/>
      <point x="852" y="534"/>
      <point x="852" y="386" type="curve" smooth="yes"/>
      <point x="852" y="230"/>
      <point x="753" y="126"/>
      <point x="588" y="126" type="curve" smooth="yes"/>
      <point x="485" y="126"/>
      <point x="380" y="166"/>
      <point x="296" y="226" type="curve" smooth="yes"/>
      <point x="266" y="248"/>
      <point x="232" y="243"/>
      <point x="204" y="196" type="curve" smooth="yes"/>
      <point x="176" y="150"/>
      <point x="187" y="119"/>
      <point x="219" y="97" type="curve" smooth="yes"/>
      <point x="322" y="25"/>
      <point x="458" y="-22"/>
      <point x="588" y="-22" type="curve" smooth="yes"/>
      <point x="846" y="-22"/>
      <point x="1010" y="152"/>
      <point x="1010" y="386" type="curve" smooth="yes"/>
      <point x="1010" y="619"/>
      <point x="865" y="786"/>
      <point x="621" y="786" type="curve" smooth="yes"/>
      <point x="542" y="786"/>
      <point x="470" y="766"/>
      <point x="406" y="730" type="curve"/>
      <point x="419" y="1051" type="line"/>
      <point x="885" y="1051" type="line" smooth="yes"/>
      <point x="930" y="1051"/>
      <point x="948" y="1069"/>
      <point x="948" y="1119" type="curve" smooth="yes"/>
      <point x="948" y="1169"/>
      <point x="930" y="1187"/>
      <point x="885" y="1187" type="curve" smooth="yes"/>
    </contour>
  </outline>
</glyph>
<glyph name="six" format="1">
  <advance width="1228"/>
  <unicode hex="0036"/>
  <outline>
    <contour>
      <point x="393" y="1185"/>
      <point x="201" y="834"/>
      <point x="201" y="512" type="curve" smooth="yes"/>
      <point x="201" y="368"/>
      <point x="228" y="259"/>
      <point x="278" y="173" type="curve" smooth="yes"/>
      <point x="354" y="43"/>
      <point x="484" y="-22"/>
      <point x="626" y="-22" type="curve" smooth="yes"/>
      <point x="873" y="-22"/>
      <point x="1036" y="136"/>
      <point x="1036" y="353" type="curve" smooth="yes"/>
      <point x="1036" y="581"/>
      <point x="869" y="731"/>
      <point x="648" y="731" type="curve" smooth="yes"/>
      <point x="534" y="731"/>
      <point x="428" y="681"/>
      <point x="358" y="589" type="curve"/>
      <point x="394" y="861"/>
      <point x="571" y="1043"/>
      <point x="938" y="1062" type="curve" smooth="yes"/>
      <point x="964" y="1063"/>
      <point x="979" y="1083"/>
      <point x="974" y="1142" type="curve" smooth="yes"/>
      <point x="969" y="1197"/>
      <point x="946" y="1210"/>
      <point x="917" y="1209" type="curve"/>
    </contour>
    <contour>
      <point x="783" y="583"/>
      <point x="878" y="492"/>
      <point x="878" y="353" type="curve" smooth="yes"/>
      <point x="878" y="216"/>
      <point x="779" y="126"/>
      <point x="626" y="126" type="curve" smooth="yes"/>
      <point x="472" y="126"/>
      <point x="372" y="227"/>
      <point x="372" y="368" type="curve" smooth="yes"/>
      <point x="372" y="495"/>
      <point x="478" y="583"/>
      <point x="626" y="583" type="curve" smooth="yes"/>
    </contour>
  </outline>
</glyph>
<glyph name="seven" format="1">
  <advance width="1228"/>
  <unicode hex="0037"/>
  <outline>
    <contour>
      <point x="292" y="1187" type="line" smooth="yes"/>
      <point x="247" y="1187"/>
      <point x="229" y="1169"/>
      <point x="229" y="1119" type="curve" smooth="yes"/>
      <point x="229" y="905" type="line" smooth="yes"/>
      <point x="229" y="859"/>
      <point x="248" y="840"/>
      <point x="304" y="840" type="curve" smooth="yes"/>
      <point x="360" y="840"/>
      <point x="379" y="859"/>
      <point x="379" y="905" type="curve" smooth="yes"/>
      <point x="379" y="1051" type="line"/>
      <point x="853" y="1051" type="line"/>
      <point x="446" y="56" type="line" smooth="yes"/>
      <point x="429" y="15"/>
      <point x="454" y="-12"/>
      <point x="499" y="-20" type="curve" smooth="yes"/>
      <point x="545" y="-28"/>
      <point x="582" y="-13"/>
      <point x="597" y="24" type="curve" smooth="yes"/>
      <point x="1023" y="1079" type="line" smooth="yes"/>
      <point x="1026" y="1087"/>
      <point x="1029" y="1102"/>
      <point x="1029" y="1119" type="curve" smooth="yes"/>
      <point x="1029" y="1169"/>
      <point x="1011" y="1187"/>
      <point x="966" y="1187" type="curve" smooth="yes"/>
    </contour>
  </outline>
</glyph>
<glyph name="eight" format="1">
  <advance width="1228"/>
  <unicode hex="0038"/>
  <outline>
    <contour>
      <point x="402" y="1209"/>
      <point x="245" y="1064"/>
      <point x="245" y="879" type="curve" smooth="yes"/>
      <point x="245" y="766"/>
      <point x="317" y="680"/>
      <point x="410" y="630" type="curve"/>
      <point x="293" y="577"/>
      <point x="206" y="476"/>
      <point x="206" y="340" type="curve" smooth="yes"/>
      <point x="206" y="131"/>
      <point x="380" y="-22"/>
      <point x="614" y="-22" type="curve" smooth="yes"/>
      <point x="848" y="-22"/>
      <point x="1022" y="131"/>
      <point x="1022" y="340" type="curve" smooth="yes"/>
      <point x="1022" y="476"/>
      <point x="935" y="577"/>
      <point x="817" y="630" type="curve"/>
      <point x="910" y="680"/>
      <point x="983" y="766"/>
      <point x="983" y="879" type="curve" smooth="yes"/>
      <point x="983" y="1064"/>
      <point x="826" y="1209"/>
      <point x="614" y="1209" type="curve" smooth="yes"/>
    </contour>
    <contour>
      <point x="761" y="554"/>
      <point x="862" y="467"/>
      <point x="862" y="341" type="curve" smooth="yes"/>
      <point x="862" y="215"/>
      <point x="761" y="126"/>
      <point x="614" y="126" type="curve" smooth="yes"/>
      <point x="467" y="126"/>
      <point x="366" y="215"/>
      <point x="366" y="341" type="curve" smooth="yes"/>
      <point x="366" y="467"/>
      <point x="467" y="554"/>
      <point x="614" y="554" type="curve" smooth="yes"/>
    </contour>
    <contour>
      <point x="737" y="1061"/>
      <point x="829" y="990"/>
      <point x="829" y="876" type="curve" smooth="yes"/>
      <point x="829" y="773"/>
      <point x="737" y="693"/>
      <point x="614" y="693" type="curve" smooth="yes"/>
      <point x="491" y="693"/>
      <point x="399" y="773"/>
      <point x="399" y="876" type="curve" smooth="yes"/>
      <point x="399" y="990"/>
      <point x="491" y="1061"/>
      <point x="614" y="1061" type="curve" smooth="yes"/>
    </contour>
  </outline>
</glyph>
<glyph name="nine" format="1">
  <advance width="1228"/>
  <unicode hex="0039"/>
  <outline>
    <contour>
      <point x="355" y="1209"/>
      <point x="192" y="1051"/>
      <point x="192" y="834" type="curve" smooth="yes"/>
      <point x="192" y="606"/>
      <point x="359" y="456"/>
      <point x="580" y="456" type="curve" smooth="yes"/>
      <point x="694" y="456"/>
      <point x="800" y="506"/>
      <point x="870" y="598" type="curve"/>
      <point x="834" y="326"/>
      <point x="657" y="144"/>
      <point x="290" y="125" type="curve"/>
      <point x="264" y="124"/>
      <point x="249" y="104"/>
      <point x="254" y="45" type="curve" smooth="yes"/>
      <point x="259" y="-10"/>
      <point x="282" y="-23"/>
      <point x="311" y="-22" type="curve" smooth="yes"/>
      <point x="835" y="2"/>
      <point x="1027" y="353"/>
      <point x="1027" y="675" type="curve" smooth="yes"/>
      <point x="1027" y="819"/>
      <point x="1000" y="928"/>
      <point x="950" y="1014" type="curve" smooth="yes"/>
      <point x="874" y="1144"/>
      <point x="744" y="1209"/>
      <point x="602" y="1209" type="curve" smooth="yes"/>
    </contour>
    <contour>
      <point x="756" y="1061"/>
      <point x="856" y="960"/>
      <point x="856" y="819" type="curve"/>
      <point x="856" y="692"/>
      <point x="750" y="604"/>
      <point x="602" y="604" type="curve" smooth="yes"/>
      <point x="445" y="604"/>
      <point x="350" y="695"/>
      <point x="350" y="834" type="curve" smooth="yes"/>
      <point x="350" y="971"/>
      <point x="449" y="1061"/>
      <point x="602" y="1061" type="curve" smooth="yes"/>
    </contour>
  </outline>
</glyph>
<glyph name="greater" format="1">
  <advance width="1228"/>
  <unicode hex="003E"/>
  <outline>
    <contour>
      <point x="238" y="1053"/>
      <point x="209" y="1044"/>
      <point x="187" y="1000" type="curve" smooth="yes"/>
      <point x="164" y="954"/>
      <point x="174" y="925"/>
      <point x="216" y="905" type="curve" smooth="yes"/>
      <point x="888" y="583" type="line"/>
      <point x="216" y="261" type="line" smooth="yes"/>
      <point x="174" y="241"/>
      <point x="164" y="212"/>
      <point x="187" y="166" type="curve" smooth="yes"/>
      <point x="209" y="122"/>
      <point x="238" y="113"/>
      <point x="279" y="133" type="curve" smooth="yes"/>
      <point x="1056" y="514" type="line" smooth="yes"/>
      <point x="1088" y="530"/>
      <point x="1103" y="548"/>
      <point x="1103" y="583" type="curve" smooth="yes"/>
      <point x="1103" y="618"/>
      <point x="1088" y="636"/>
      <point x="1056" y="652" type="curve" smooth="yes"/>
      <point x="279" y="1033" type="line" smooth="yes"/>
    </contour>
  </outline>
</glyph>
<glyph name="B" format="1">
  <advance width="1228"/>
  <unicode hex="0042"/>
  <outline>
    <contour>
      <point x="143" y="1187" type="line" smooth="yes"/>
      <point x="98" y="1187"/>
      <point x="80" y="1169"/>
      <point x="80" y="1119" type="curve" smooth="yes"/>
      <point x="80" y="1069"/>
      <point x="98" y="1051"/>
      <point x="143" y="1051" type="curve" smooth="yes"/>
      <point x="265" y="1051" type="line"/>
      <point x="265" y="136" type="line"/>
      <point x="143" y="136" type="line" smooth="yes"/>
      <point x="98" y="136"/>
      <point x="80" y="118"/>
      <point x="80" y="68" type="curve" smooth="yes"/>
      <point x="80" y="18"/>
      <point x="98" y="0"/>
      <point x="143" y="0" type="curve" smooth="yes"/>
      <point x="710" y="0" type="line" smooth="yes"/>
      <point x="956" y="0"/>
      <point x="1094" y="129"/>
      <point x="1094" y="339" type="curve" smooth="yes"/>
      <point x="1094" y="488"/>
      <point x="1015" y="590"/>
      <point x="875" y="635" type="curve"/>
      <point x="958" y="683"/>
      <point x="1008" y="761"/>
      <point x="1008" y="865" type="curve" smooth="yes"/>
      <point x="1008" y="1058"/>
      <point x="883" y="1187"/>
      <point x="644" y="1187" type="curve" smooth="yes"/>
    </contour>
    <contour>
      <point x="853" y="545"/>
      <point x="936" y="475"/>
      <point x="936" y="339" type="curve" smooth="yes"/>
      <point x="936" y="210"/>
      <point x="845" y="136"/>
      <point x="680" y="136" type="curve" smooth="yes"/>
      <point x="415" y="136" type="line"/>
      <point x="415" y="545" type="line"/>
      <point x="685" y="545" type="line" smooth="yes"/>
    </contour>
    <contour>
      <point x="779" y="1051"/>
      <point x="855" y="986"/>
      <point x="855" y="865" type="curve" smooth="yes"/>
      <point x="855" y="749"/>
      <point x="778" y="681"/>
      <point x="622" y="681" type="curve" smooth="yes"/>
      <point x="415" y="681" type="line"/>
      <point x="415" y="1051" type="line"/>
      <point x="622" y="1051" type="line" smooth="yes"/>
    </contour>
  </outline>
</glyph>
<glyph name="C" format="1">
  <advance width="1228"/>
  <unicode hex="0043"/>
  <outline>
    <contour>
      <point x="943" y="1209"/>
      <point x="924" y="1190"/>
      <point x="924" y="1144" type="curve" smooth="yes"/>
      <point x="924" y="1086" type="line"/>
      <point x="859" y="1163"/>
      <point x="763" y="1209"/>
      <point x="634" y="1209" type="curve" smooth="yes"/>
      <point x="329" y="1209"/>
      <point x="118" y="963"/>
      <point x="118" y="593" type="curve" smooth="yes"/>
      <point x="118" y="223"/>
      <point x="319" y="-22"/>
      <point x="634" y="-22" type="curve" smooth="yes"/>
      <point x="786" y="-22"/>
      <point x="936" y="21"/>
      <point x="1062" y="109" type="curve" smooth="yes"/>
      <point x="1097" y="134"/>
      <point x="1103" y="167"/>
      <point x="1075" y="214" type="curve" smooth="yes"/>
      <point x="1046" y="263"/>
      <point x="1012" y="260"/>
      <point x="985" y="239" type="curve" smooth="yes"/>
      <point x="889" y="165"/>
      <point x="766" y="126"/>
      <point x="634" y="126" type="curve" smooth="yes"/>
      <point x="417" y="126"/>
      <point x="276" y="305"/>
      <point x="276" y="593" type="curve" smooth="yes"/>
      <point x="276" y="881"/>
      <point x="427" y="1061"/>
      <point x="644" y="1061" type="curve" smooth="yes"/>
      <point x="837" y="1061"/>
      <point x="924" y="945"/>
      <point x="924" y="814" type="curve" smooth="yes"/>
      <point x="924" y="768"/>
      <point x="943" y="749"/>
      <point x="999" y="749" type="curve" smooth="yes"/>
      <point x="1055" y="749"/>
      <point x="1074" y="768"/>
      <point x="1074" y="814" type="curve" smooth="yes"/>
      <point x="1074" y="1144" type="line" smooth="yes"/>
      <point x="1074" y="1190"/>
      <point x="1055" y="1209"/>
      <point x="999" y="1209" type="curve" smooth="yes"/>
    </contour>
  </outline>
</glyph>
<glyph name="E" format="1">
  <advance width="1228"/>
  <unicode hex="0045"/>
  <outline>
    <contour>
      <point x="143" y="1187" type="line" smooth="yes"/>
      <point x="98" y="1187"/>
      <point x="80" y="1169"/>
      <point x="80" y="1119" type="curve" smooth="yes"/>
      <point x="80" y="1069"/>
      <point x="98" y="1051"/>
      <point x="143" y="1051" type="curve" smooth="yes"/>
      <point x="245" y="1051" type="line"/>
      <point x="245" y="136" type="line"/>
      <point x="143" y="136" type="line" smooth="yes"/>
      <point x="98" y="136"/>
      <point x="80" y="118"/>
      <point x="80" y="68" type="curve" smooth="yes"/>
      <point x="80" y="18"/>
      <point x="98" y="0"/>
      <point x="143" y="0" type="curve" smooth="yes"/>
      <point x="1037" y="0" type="line" smooth="yes"/>
      <point x="1082" y="0"/>
      <point x="1100" y="18"/>
      <point x="1100" y="68" type="curve" smooth="yes"/>
      <point x="1100" y="365" type="line" smooth="yes"/>
      <point x="1100" y="411"/>
      <point x="1081" y="430"/>
      <point x="1025" y="430" type="curve" smooth="yes"/>
      <point x="969" y="430"/>
      <point x="950" y="411"/>
      <point x="950" y="365" type="curve" smooth="yes"/>
      <point x="950" y="136" type="line"/>
      <point x="395" y="136" type="line"/>
      <point x="395" y="544" type="line"/>
      <point x="700" y="544" type="line" smooth="yes"/>
      <point x="745" y="544"/>
      <point x="763" y="562"/>
      <point x="763" y="612" type="curve" smooth="yes"/>
      <point x="763" y="662"/>
      <point x="745" y="680"/>
      <point x="700" y="680" type="curve" smooth="yes"/>
      <point x="395" y="680" type="line"/>
      <point x="395" y="1051" type="line"/>
      <point x="930" y="1051" type="line"/>
      <point x="930" y="865" type="line" smooth="yes"/>
      <point x="930" y="819"/>
      <point x="949" y="800"/>
      <point x="1005" y="800" type="curve" smooth="yes"/>
      <point x="1061" y="800"/>
      <point x="1080" y="819"/>
      <point x="1080" y="865" type="curve" smooth="yes"/>
      <point x="1080" y="1119" type="line" smooth="yes"/>
      <point x="1080" y="1169"/>
      <point x="1062" y="1187"/>
      <point x="1017" y="1187" type="curve" smooth="yes"/>
    </contour>
    <contour>
      <point x="669" y="836"/>
      <point x="653" y="817"/>
      <point x="653" y="771" type="curve" smooth="yes"/>
      <point x="653" y="453" type="line" smooth="yes"/>
      <point x="653" y="407"/>
      <point x="669" y="388"/>
      <point x="724" y="388" type="curve" smooth="yes"/>
      <point x="779" y="388"/>
      <point x="795" y="407"/>
      <point x="795" y="453" type="curve" smooth="yes"/>
      <point x="795" y="771" type="line" smooth="yes"/>
      <point x="795" y="817"/>
      <point x="779" y="836"/>
      <point x="724" y="836" type="curve" smooth="yes"/>
    </contour>
  </outline>
</glyph>
<glyph name="M" format="1">
  <advance width="1228"/>
  <unicode hex="004D"/>
  <outline>
    <contour>
      <point x="894" y="1187" type="line" smooth="yes"/>
      <point x="862" y="1187"/>
      <point x="843" y="1177"/>
      <point x="835" y="1154" type="curve" smooth="yes"/>
      <point x="614" y="545" type="line"/>
      <point x="392" y="1154" type="line" smooth="yes"/>
      <point x="384" y="1177"/>
      <point x="366" y="1187"/>
      <point x="334" y="1187" type="curve" smooth="yes"/>
      <point x="123" y="1187" type="line" smooth="yes"/>
      <point x="78" y="1187"/>
      <point x="60" y="1169"/>
      <point x="60" y="1119" type="curve" smooth="yes"/>
      <point x="60" y="1069"/>
      <point x="78" y="1051"/>
      <point x="123" y="1051" type="curve" smooth="yes"/>
      <point x="172" y="1051" type="line"/>
      <point x="147" y="136" type="line"/>
      <point x="93" y="136" type="line" smooth="yes"/>
      <point x="48" y="136"/>
      <point x="30" y="118"/>
      <point x="30" y="68" type="curve" smooth="yes"/>
      <point x="30" y="18"/>
      <point x="48" y="0"/>
      <point x="93" y="0" type="curve" smooth="yes"/>
      <point x="407" y="0" type="line" smooth="yes"/>
      <point x="452" y="0"/>
      <point x="470" y="18"/>
      <point x="470" y="68" type="curve" smooth="yes"/>
      <point x="470" y="118"/>
      <point x="452" y="136"/>
      <point x="407" y="136" type="curve" smooth="yes"/>
      <point x="296" y="136" type="line"/>
      <point x="317" y="955" type="line"/>
      <point x="522" y="385" type="line" smooth="yes"/>
      <point x="539" y="338"/>
      <point x="567" y="320"/>
      <point x="614" y="320" type="curve" smooth="yes"/>
      <point x="661" y="320"/>
      <point x="689" y="338"/>
      <point x="706" y="385" type="curve" smooth="yes"/>
      <point x="910" y="955" type="line"/>
      <point x="932" y="136" type="line"/>
      <point x="821" y="136" type="line" smooth="yes"/>
      <point x="776" y="136"/>
      <point x="758" y="118"/>
      <point x="758" y="68" type="curve" smooth="yes"/>
      <point x="758" y="18"/>
      <point x="776" y="0"/>
      <point x="821" y="0" type="curve" smooth="yes"/>
      <point x="1135" y="0" type="line" smooth="yes"/>
      <point x="1180" y="0"/>
      <point x="1198" y="18"/>
      <point x="1198" y="68" type="curve" smooth="yes"/>
      <point x="1198" y="118"/>
      <point x="1180" y="136"/>
      <point x="1135" y="136" type="curve" smooth="yes"/>
      <point x="1081" y="136" type="line"/>
      <point x="1055" y="1051" type="line"/>
      <point x="1105" y="1051" type="line" smooth="yes"/>
      <point x="1150" y="1051"/>
      <point x="1168" y="1069"/>
      <point x="1168" y="1119" type="curve" smooth="yes"/>
      <point x="1168" y="1169"/>
      <point x="1150" y="1187"/>
      <point x="1105" y="1187" type="curve" smooth="yes"/>
    </contour>
  </outline>
</glyph>
<glyph name="O" format="1">
  <advance width="1228"/>
  <unicode hex="004F"/>
  <outline>
    <contour>
      <point x="299" y="1209"/>
      <point x="88" y="963"/>
      <point x="88" y="593" type="curve" smooth="yes"/>
      <point x="88" y="223"/>
      <point x="299" y="-22"/>
      <point x="614" y="-22" type="curve" smooth="yes"/>
      <point x="929" y="-22"/>
      <point x="1140" y="223"/>
      <point x="1140" y="593" type="curve" smooth="yes"/>
      <point x="1140" y="963"/>
      <point x="929" y="1209"/>
      <point x="614" y="1209" type="curve" smooth="yes"/>
    </contour>
    <contour>
      <point x="836" y="1061"/>
      <point x="982" y="881"/>
      <point x="982" y="593" type="curve" smooth="yes"/>
      <point x="982" y="305"/>
      <point x="836" y="126"/>
      <point x="614" y="126" type="curve" smooth="yes"/>
      <point x="392" y="126"/>
      <point x="246" y="305"/>
      <point x="246" y="593" type="curve" smooth="yes"/>
      <point x="246" y="881"/>
      <point x="392" y="1061"/>
      <point x="614" y="1061" type="curve" smooth="yes"/>
    </contour>
  </outline>
</glyph>
<glyph name="S" format="1">
  <advance width="1228"/>
  <unicode hex="0053"/>
  <outline>
    <contour>
      <point x="887" y="1209"/>
      <point x="868" y="1190"/>
      <point x="868" y="1144" type="curve" smooth="yes"/>
      <point x="868" y="1083" type="line"/>
      <point x="792" y="1158"/>
      <point x="678" y="1209"/>
      <point x="558" y="1209" type="curve" smooth="yes"/>
      <point x="331" y="1209"/>
      <point x="169" y="1082"/>
      <point x="169" y="873" type="curve" smooth="yes"/>
      <point x="169" y="732"/>
      <point x="240" y="658"/>
      <point x="338" y="614" type="curve" smooth="yes"/>
      <point x="474" y="553"/>
      <point x="662" y="547"/>
      <point x="784" y="495" type="curve" smooth="yes"/>
      <point x="858" y="463"/>
      <point x="907" y="415"/>
      <point x="907" y="327" type="curve" smooth="yes"/>
      <point x="907" y="209"/>
      <point x="817" y="126"/>
      <point x="642" y="126" type="curve" smooth="yes"/>
      <point x="467" y="126"/>
      <point x="345" y="212"/>
      <point x="291" y="366" type="curve" smooth="yes"/>
      <point x="281" y="394"/>
      <point x="262" y="408"/>
      <point x="233" y="408" type="curve" smooth="yes"/>
      <point x="177" y="408"/>
      <point x="158" y="389"/>
      <point x="158" y="343" type="curve" smooth="yes"/>
      <point x="158" y="43" type="line" smooth="yes"/>
      <point x="158" y="-3"/>
      <point x="177" y="-22"/>
      <point x="233" y="-22" type="curve" smooth="yes"/>
      <point x="289" y="-22"/>
      <point x="308" y="-3"/>
      <point x="308" y="43" type="curve" smooth="yes"/>
      <point x="308" y="121" type="line"/>
      <point x="392" y="27"/>
      <point x="509" y="-22"/>
      <point x="642" y="-22" type="curve" smooth="yes"/>
      <point x="916" y="-22"/>
      <point x="1065" y="121"/>
      <point x="1065" y="327" type="curve" smooth="yes"/>
      <point x="1065" y="506"/>
      <point x="972" y="591"/>
      <point x="852" y="640" type="curve" smooth="yes"/>
      <point x="703" y="700"/>
      <point x="514" y="703"/>
      <point x="408" y="756" type="curve" smooth="yes"/>
      <point x="359" y="781"/>
      <point x="327" y="816"/>
      <point x="327" y="873" type="curve" smooth="yes"/>
      <point x="327" y="985"/>
      <point x="409" y="1061"/>
      <point x="558" y="1061" type="curve" smooth="yes"/>
      <point x="704" y="1061"/>
      <point x="826" y="998"/>
      <point x="891" y="875" type="curve" smooth="yes"/>
      <point x="901" y="857"/>
      <point x="919" y="849"/>
      <point x="943" y="849" type="curve" smooth="yes"/>
      <point x="999" y="849"/>
      <point x="1018" y="868"/>
      <point x="1018" y="914" type="curve" smooth="yes"/>
      <point x="1018" y="1144" type="line" smooth="yes"/>
      <point x="1018" y="1190"/>
      <point x="999" y="1209"/>
      <point x="943" y="1209" type="curve" smooth="yes"/>
    </contour>
  </outline>
</glyph>
<glyph name="W" format="1">
  <advance width="1228"/>
  <unicode hex="0057"/>
  <outline>
    <contour>
      <point x="851" y="1187" type="line" smooth="yes"/>
      <point x="806" y="1187"/>
      <point x="788" y="1169"/>
      <point x="788" y="1119" type="curve" smooth="yes"/>
      <point x="788" y="1069"/>
      <point x="806" y="1051"/>
      <point x="851" y="1051" type="curve" smooth="yes"/>
      <point x="975" y="1051" type="line"/>
      <point x="871" y="250" type="line"/>
      <point x="684" y="845" type="line" smooth="yes"/>
      <point x="676" y="871"/>
      <point x="655" y="885"/>
      <point x="611" y="885" type="curve" smooth="yes"/>
      <point x="568" y="885"/>
      <point x="547" y="864"/>
      <point x="539" y="838" type="curve" smooth="yes"/>
      <point x="351" y="250" type="line"/>
      <point x="251" y="1051" type="line"/>
      <point x="397" y="1051" type="line" smooth="yes"/>
      <point x="442" y="1051"/>
      <point x="460" y="1069"/>
      <point x="460" y="1119" type="curve" smooth="yes"/>
      <point x="460" y="1169"/>
      <point x="442" y="1187"/>
      <point x="397" y="1187" type="curve" smooth="yes"/>
      <point x="53" y="1187" type="line" smooth="yes"/>
      <point x="8" y="1187"/>
      <point x="-10" y="1169"/>
      <point x="-10" y="1119" type="curve" smooth="yes"/>
      <point x="-10" y="1069"/>
      <point x="8" y="1051"/>
      <point x="53" y="1051" type="curve" smooth="yes"/>
      <point x="102" y="1051" type="line"/>
      <point x="235" y="43" type="line" smooth="yes"/>
      <point x="241" y="-5"/>
      <point x="268" y="-22"/>
      <point x="319" y="-22" type="curve" smooth="yes"/>
      <point x="370" y="-22"/>
      <point x="408" y="-3"/>
      <point x="423" y="43" type="curve" smooth="yes"/>
      <point x="610" y="624" type="line"/>
      <point x="795" y="43" type="line" smooth="yes"/>
      <point x="809" y="-3"/>
      <point x="846" y="-22"/>
      <point x="897" y="-22" type="curve" smooth="yes"/>
      <point x="948" y="-22"/>
      <point x="976" y="-6"/>
      <point x="983" y="43" type="curve" smooth="yes"/>
      <point x="1121" y="1051" type="line"/>
      <point x="1175" y="1051" type="line" smooth="yes"/>
      <point x="1220" y="1051"/>
      <point x="1238" y="1069"/>
      <point x="1238" y="1119" type="curve" smooth="yes"/>
      <point x="1238" y="1169"/>
      <point x="1220" y="1187"/>
      <point x="1175" y="1187" type="curve" smooth="yes"/>
    </contour>
  </outline>
</glyph>
<glyph name="Y" format="1">
  <advance width="1228"/>
  <unicode hex="0059"/>
  <outline>
    <contour>
      <point x="801" y="1187" type="line" smooth="yes"/>
      <point x="756" y="1187"/>
      <point x="738" y="1169"/>
      <point x="738" y="1119" type="curve" smooth="yes"/>
      <point x="738" y="1069"/>
      <point x="756" y="1051"/>
      <point x="801" y="1051" type="curve" smooth="yes"/>
      <point x="866" y="1051" type="line"/>
      <point x="614" y="642" type="line"/>
      <point x="364" y="1051" type="line"/>
      <point x="457" y="1051" type="line" smooth="yes"/>
      <point x="502" y="1051"/>
      <point x="520" y="1069"/>
      <point x="520" y="1119" type="curve" smooth="yes"/>
      <point x="520" y="1169"/>
      <point x="502" y="1187"/>
      <point x="457" y="1187" type="curve" smooth="yes"/>
      <point x="123" y="1187" type="line" smooth="yes"/>
      <point x="78" y="1187"/>
      <point x="60" y="1169"/>
      <point x="60" y="1119" type="curve" smooth="yes"/>
      <point x="60" y="1069"/>
      <point x="78" y="1051"/>
      <point x="123" y="1051" type="curve" smooth="yes"/>
      <point x="193" y="1051" type="line"/>
      <point x="539" y="492" type="line"/>
      <point x="539" y="136" type="line"/>
      <point x="313" y="136" type="line" smooth="yes"/>
      <point x="268" y="136"/>
      <point x="250" y="118"/>
      <point x="250" y="68" type="curve" smooth="yes"/>
      <point x="250" y="18"/>
      <point x="268" y="0"/>
      <point x="313" y="0" type="curve" smooth="yes"/>
      <point x="915" y="0" type="line" smooth="yes"/>
      <point x="960" y="0"/>
      <point x="978" y="18"/>
      <point x="978" y="68" type="curve" smooth="yes"/>
      <point x="978" y="118"/>
      <point x="960" y="136"/>
      <point x="915" y="136" type="curve" smooth="yes"/>
      <point x="689" y="136" type="line"/>
      <point x="689" y="492" type="line"/>
      <point x="1037" y="1051" type="line"/>
      <point x="1105" y="1051" type="line" smooth="yes"/>
      <point x="1150" y="1051"/>
      <point x="1168" y="1069"/>
      <point x="1168" y="1119" type="curve" smooth="yes"/>
      <point x="1168" y="1169"/>
      <point x="1150" y="1187"/>
      <point x="1105" y="1187" type="curve" smooth="yes"/>
    </contour>
  </outline>
</glyph>
<glyph name="Z" format="1">
  <advance width="1228"/>
  <unicode hex="005A"/>
  <outline>
    <contour>
      <point x="251" y="1187" type="line" smooth="yes"/>
      <point x="206" y="1187"/>
      <point x="188" y="1169"/>
      <point x="188" y="1119" type="curve" smooth="yes"/>
      <point x="188" y="802" type="line" smooth="yes"/>
      <point x="188" y="756"/>
      <point x="207" y="737"/>
      <point x="263" y="737" type="curve" smooth="yes"/>
      <point x="319" y="737"/>
      <point x="338" y="756"/>
      <point x="338" y="802" type="curve" smooth="yes"/>
      <point x="338" y="1051" type="line"/>
      <point x="840" y="1051" type="line"/>
      <point x="181" y="111" type="line" smooth="yes"/>
      <point x="173" y="99"/>
      <point x="167" y="86"/>
      <point x="167" y="68" type="curve" smooth="yes"/>
      <point x="167" y="18"/>
      <point x="185" y="0"/>
      <point x="230" y="0" type="curve" smooth="yes"/>
      <point x="996" y="0" type="line" smooth="yes"/>
      <point x="1041" y="0"/>
      <point x="1059" y="18"/>
      <point x="1059" y="68" type="curve" smooth="yes"/>
      <point x="1059" y="405" type="line" smooth="yes"/>
      <point x="1059" y="451"/>
      <point x="1040" y="470"/>
      <point x="984" y="470" type="curve" smooth="yes"/>
      <point x="928" y="470"/>
      <point x="909" y="451"/>
      <point x="909" y="405" type="curve" smooth="yes"/>
      <point x="909" y="136" type="line"/>
      <point x="377" y="136" type="line"/>
      <point x="1040" y="1080" type="line" smooth="yes"/>
      <point x="1047" y="1090"/>
      <point x="1050" y="1103"/>
      <point x="1050" y="1119" type="curve" smooth="yes"/>
      <point x="1050" y="1169"/>
      <point x="1032" y="1187"/>
      <point x="987" y="1187" type="curve" smooth="yes"/>
    </contour>
  </outline>
</glyph>
<glyph name="bracketleft" format="1">
  <advance width="1228"/>
  <unicode hex="005B"/>
  <outline>
    <contour>
      <point x="393" y="1372" type="line" smooth="yes"/>
      <point x="348" y="1372"/>
      <point x="330" y="1354"/>
      <point x="330" y="1304" type="curve" smooth="yes"/>
      <point x="330" y="-265" type="line" smooth="yes"/>
      <point x="330" y="-315"/>
      <point x="348" y="-333"/>
      <point x="393" y="-333" type="curve" smooth="yes"/>
      <point x="480" y="-333" type="line"/>
      <point x="480" y="1372" type="line"/>
    </contour>
    <contour>
      <point x="455" y="-189" type="line"/>
      <point x="455" y="-333" type="line"/>
      <point x="807" y="-333" type="line" smooth="yes"/>
      <point x="852" y="-333"/>
      <point x="870" y="-313"/>
      <point x="870" y="-261" type="curve" smooth="yes"/>
      <point x="870" y="-209"/>
      <point x="852" y="-189"/>
      <point x="807" y="-189" type="curve" smooth="yes"/>
    </contour>
    <contour>
      <point x="455" y="1372" type="line"/>
      <point x="455" y="1228" type="line"/>
      <point x="807" y="1228" type="line" smooth="yes"/>
      <point x="852" y="1228"/>
      <point x="870" y="1248"/>
      <point x="870" y="1300" type="curve" smooth="yes"/>
      <point x="870" y="1352"/>
      <point x="852" y="1372"/>
      <point x="807" y="1372" type="curve" smooth="yes"/>
    </contour>
  </outline>
</glyph>
<glyph name="bracketright" format="1">
  <advance width="1228"/>
  <unicode hex="005D"/>
  <outline>
    <contour>
      <point x="748" y="1372" type="line"/>
      <point x="748" y="-333" type="line"/>
      <point x="835" y="-333" type="line" smooth="yes"/>
      <point x="880" y="-333"/>
      <point x="898" y="-315"/>
      <point x="898" y="-265" type="curve" smooth="yes"/>
      <point x="898" y="1304" type="line" smooth="yes"/>
      <point x="898" y="1354"/>
      <point x="880" y="1372"/>
      <point x="835" y="1372" type="curve" smooth="yes"/>
    </contour>
    <contour>
      <point x="421" y="-189" type="line" smooth="yes"/>
      <point x="376" y="-189"/>
      <point x="358" y="-209"/>
      <point x="358" y="-261" type="curve" smooth="yes"/>
      <point x="358" y="-313"/>
      <point x="376" y="-333"/>
      <point x="421" y="-333" type="curve" smooth="yes"/>
      <point x="773" y="-333" type="line"/>
      <point x="773" y="-189" type="line"/>
    </contour>
    <contour>
      <point x="421" y="1372" type="line" smooth="yes"/>
      <point x="376" y="1372"/>
      <point x="358" y="1352"/>
      <point x="358" y="1300" type="curve" smooth="yes"/>
      <point x="358" y="1248"/>
      <point x="376" y="1228"/>
      <point x="421" y="1228" type="curve" smooth="yes"/>
      <point x="773" y="1228" type="line"/>
      <point x="773" y="1372" type="line"/>
    </contour>
  </outline>
</glyph>
<glyph name="d" format="1">
  <advance width="1228"/>
  <unicode hex="0064"/>
  <outline>
    <contour>
      <point x="714" y="1312" type="line" smooth="yes"/>
      <point x="669" y="1312"/>
      <point x="651" y="1294"/>
      <point x="651" y="1244" type="curve" smooth="yes"/>
      <point x="651" y="1194"/>
      <point x="669" y="1176"/>
      <point x="714" y="1176" type="curve" smooth="yes"/>
      <point x="876" y="1176" type="line"/>
      <point x="876" y="781" type="line"/>
      <point x="796" y="883"/>
      <point x="692" y="946"/>
      <point x="559" y="946" type="curve" smooth="yes"/>
      <point x="312" y="946"/>
      <point x="127" y="764"/>
      <point x="127" y="462" type="curve" smooth="yes"/>
      <point x="127" y="160"/>
      <point x="312" y="-22"/>
      <point x="559" y="-22" type="curve" smooth="yes"/>
      <point x="692" y="-22"/>
      <point x="804" y="41"/>
      <point x="886" y="148" type="curve"/>
      <point x="886" y="68" type="line" smooth="yes"/>
      <point x="886" y="18"/>
      <point x="904" y="0"/>
      <point x="949" y="0" type="curve" smooth="yes"/>
      <point x="1108" y="0" type="line" smooth="yes"/>
      <point x="1153" y="0"/>
      <point x="1171" y="18"/>
      <point x="1171" y="68" type="curve" smooth="yes"/>
      <point x="1171" y="118"/>
      <point x="1153" y="136"/>
      <point x="1108" y="136" type="curve" smooth="yes"/>
      <point x="1026" y="136" type="line"/>
      <point x="1026" y="1244" type="line" smooth="yes"/>
      <point x="1026" y="1294"/>
      <point x="1008" y="1312"/>
      <point x="963" y="1312" type="curve" smooth="yes"/>
    </contour>
    <contour>
      <point x="746" y="798"/>
      <point x="876" y="674"/>
      <point x="876" y="462" type="curve" smooth="yes"/>
      <point x="876" y="250"/>
      <point x="746" y="126"/>
      <point x="569" y="126" type="curve" smooth="yes"/>
      <point x="388" y="126"/>
      <point x="285" y="266"/>
      <point x="285" y="462" type="curve" smooth="yes"/>
      <point x="285" y="658"/>
      <point x="388" y="798"/>
      <point x="569" y="798" type="curve" smooth="yes"/>
    </contour>
  </outline>
</glyph>
<glyph name="m" format="1">
  <advance width="1228"/>
  <unicode hex="006D"/>
  <outline>
    <contour>
      <point x="830" y="946"/>
      <point x="752" y="887"/>
      <point x="692" y="765" type="curve"/>
      <point x="667" y="888"/>
      <point x="591" y="946"/>
      <point x="504" y="946" type="curve" smooth="yes"/>
      <point x="413" y="946"/>
      <point x="329" y="885"/>
      <point x="271" y="757" type="curve"/>
      <point x="271" y="856" type="line" smooth="yes"/>
      <point x="271" y="906"/>
      <point x="253" y="924"/>
      <point x="208" y="924" type="curve" smooth="yes"/>
      <point x="59" y="924" type="line" smooth="yes"/>
      <point x="14" y="924"/>
      <point x="-4" y="906"/>
      <point x="-4" y="856" type="curve" smooth="yes"/>
      <point x="-4" y="806"/>
      <point x="14" y="788"/>
      <point x="59" y="788" type="curve" smooth="yes"/>
      <point x="141" y="788" type="line"/>
      <point x="141" y="65" type="line" smooth="yes"/>
      <point x="141" y="19"/>
      <point x="159" y="0"/>
      <point x="215" y="0" type="curve" smooth="yes"/>
      <point x="217" y="0" type="line" smooth="yes"/>
      <point x="273" y="0"/>
      <point x="291" y="19"/>
      <point x="291" y="65" type="curve" smooth="yes"/>
      <point x="291" y="457" type="line" smooth="yes"/>
      <point x="291" y="659"/>
      <point x="370" y="798"/>
      <point x="465" y="798" type="curve" smooth="yes"/>
      <point x="533" y="798"/>
      <point x="560" y="749"/>
      <point x="560" y="660" type="curve" smooth="yes"/>
      <point x="560" y="68" type="line" smooth="yes"/>
      <point x="560" y="18"/>
      <point x="578" y="0"/>
      <point x="623" y="0" type="curve" smooth="yes"/>
      <point x="647" y="0" type="line" smooth="yes"/>
      <point x="692" y="0"/>
      <point x="710" y="18"/>
      <point x="710" y="68" type="curve" smooth="yes"/>
      <point x="710" y="457" type="line" smooth="yes"/>
      <point x="710" y="659"/>
      <point x="789" y="798"/>
      <point x="884" y="798" type="curve" smooth="yes"/>
      <point x="952" y="798"/>
      <point x="979" y="749"/>
      <point x="979" y="660" type="curve" smooth="yes"/>
      <point x="979" y="68" type="line" smooth="yes"/>
      <point x="979" y="18"/>
      <point x="997" y="0"/>
      <point x="1042" y="0" type="curve" smooth="yes"/>
      <point x="1066" y="0" type="line" smooth="yes"/>
      <point x="1111" y="0"/>
      <point x="1129" y="18"/>
      <point x="1129" y="68" type="curve" smooth="yes"/>
      <point x="1129" y="678" type="line" smooth="yes"/>
      <point x="1129" y="861"/>
      <point x="1036" y="946"/>
      <point x="922" y="946" type="curve" smooth="yes"/>
    </contour>
    <contour>
      <point x="59" y="136" type="line" smooth="yes"/>
      <point x="14" y="136"/>
      <point x="-4" y="118"/>
      <point x="-4" y="68" type="curve" smooth="yes"/>
      <point x="-4" y="18"/>
      <point x="14" y="0"/>
      <point x="59" y="0" type="curve" smooth="yes"/>
      <point x="343" y="0" type="line" smooth="yes"/>
      <point x="388" y="0"/>
      <point x="406" y="18"/>
      <point x="406" y="68" type="curve" smooth="yes"/>
      <point x="406" y="118"/>
      <point x="388" y="136"/>
      <point x="343" y="136" type="curve" smooth="yes"/>
    </contour>
    <contour>
      <point x="635" y="136" type="line"/>
      <point x="635" y="0" type="line"/>
      <point x="767" y="0" type="line" smooth="yes"/>
      <point x="812" y="0"/>
      <point x="830" y="18"/>
      <point x="830" y="68" type="curve" smooth="yes"/>
      <point x="830" y="118"/>
      <point x="812" y="136"/>
      <point x="767" y="136" type="curve" smooth="yes"/>
    </contour>
    <contour>
      <point x="1054" y="136" type="line"/>
      <point x="1054" y="0" type="line"/>
      <point x="1191" y="0" type="line" smooth="yes"/>
      <point x="1236" y="0"/>
      <point x="1254" y="18"/>
      <point x="1254" y="68" type="curve" smooth="yes"/>
      <point x="1254" y="118"/>
      <point x="1236" y="136"/>
      <point x="1191" y="136" type="curve" smooth="yes"/>
    </contour>
  </outline>
</glyph>
<glyph name="o" format="1">
  <advance width="1228"/>
  <unicode hex="006F"/>
  <outline>
    <contour>
      <point x="338" y="946"/>
      <point x="132" y="744"/>
      <point x="132" y="462" type="curve" smooth="yes"/>
      <point x="132" y="180"/>
      <point x="338" y="-22"/>
      <point x="614" y="-22" type="curve" smooth="yes"/>
      <point x="890" y="-22"/>
      <point x="1096" y="180"/>
      <point x="1096" y="462" type="curve" smooth="yes"/>
      <point x="1096" y="744"/>
      <point x="890" y="946"/>
      <point x="614" y="946" type="curve" smooth="yes"/>
    </contour>
    <contour>
      <point x="810" y="798"/>
      <point x="938" y="659"/>
      <point x="938" y="462" type="curve" smooth="yes"/>
      <point x="938" y="265"/>
      <point x="810" y="126"/>
      <point x="614" y="126" type="curve" smooth="yes"/>
      <point x="418" y="126"/>
      <point x="290" y="265"/>
      <point x="290" y="462" type="curve" smooth="yes"/>
      <point x="290" y="659"/>
      <point x="418" y="798"/>
      <point x="614" y="798" type="curve" smooth="yes"/>
    </contour>
  </outline>
</glyph>
<glyph name="p" format="1">
  <advance width="1228"/>
  <unicode hex="0070"/>
  <outline>
    <contour>
      <point x="536" y="946"/>
      <point x="424" y="883"/>
      <point x="342" y="776" type="curve"/>
      <point x="342" y="856" type="line" smooth="yes"/>
      <point x="342" y="906"/>
      <point x="324" y="924"/>
      <point x="279" y="924" type="curve" smooth="yes"/>
      <point x="120" y="924" type="line" smooth="yes"/>
      <point x="75" y="924"/>
      <point x="57" y="906"/>
      <point x="57" y="856" type="curve" smooth="yes"/>
      <point x="57" y="806"/>
      <point x="75" y="788"/>
      <point x="120" y="788" type="curve" smooth="yes"/>
      <point x="202" y="788" type="line"/>
      <point x="202" y="-252" type="line"/>
      <point x="100" y="-252" type="line" smooth="yes"/>
      <point x="55" y="-252"/>
      <point x="37" y="-270"/>
      <point x="37" y="-320" type="curve" smooth="yes"/>
      <point x="37" y="-370"/>
      <point x="55" y="-388"/>
      <point x="100" y="-388" type="curve" smooth="yes"/>
      <point x="524" y="-388" type="line" smooth="yes"/>
      <point x="569" y="-388"/>
      <point x="587" y="-370"/>
      <point x="587" y="-320" type="curve" smooth="yes"/>
      <point x="587" y="-270"/>
      <point x="569" y="-252"/>
      <point x="524" y="-252" type="curve" smooth="yes"/>
      <point x="352" y="-252" type="line"/>
      <point x="352" y="143" type="line"/>
      <point x="432" y="41"/>
      <point x="536" y="-22"/>
      <point x="669" y="-22" type="curve" smooth="yes"/>
      <point x="916" y="-22"/>
      <point x="1101" y="160"/>
      <point x="1101" y="462" type="curve" smooth="yes"/>
      <point x="1101" y="764"/>
      <point x="916" y="946"/>
      <point x="669" y="946" type="curve" smooth="yes"/>
    </contour>
    <contour>
      <point x="840" y="798"/>
      <point x="943" y="658"/>
      <point x="943" y="462" type="curve" smooth="yes"/>
      <point x="943" y="266"/>
      <point x="840" y="126"/>
      <point x="659" y="126" type="curve" smooth="yes"/>
      <point x="482" y="126"/>
      <point x="352" y="250"/>
      <point x="352" y="462" type="curve" smooth="yes"/>
      <point x="352" y="674"/>
      <point x="482" y="798"/>
      <point x="659" y="798" type="curve" smooth="yes"/>
    </contour>
  </outline>
</glyph>
<glyph name="q" format="1">
  <advance width="1228"/>
  <unicode hex="0071"/>
  <outline>
    <contour>
      <point x="312" y="946"/>
      <point x="127" y="764"/>
      <point x="127" y="462" type="curve" smooth="yes"/>
      <point x="127" y="160"/>
      <point x="312" y="-22"/>
      <point x="559" y="-22" type="curve" smooth="yes"/>
      <point x="692" y="-22"/>
      <point x="796" y="41"/>
      <point x="876" y="143" type="curve"/>
      <point x="876" y="-252" type="line"/>
      <point x="704" y="-252" type="line" smooth="yes"/>
      <point x="659" y="-252"/>
      <point x="641" y="-270"/>
      <point x="641" y="-320" type="curve" smooth="yes"/>
      <point x="641" y="-370"/>
      <point x="659" y="-388"/>
      <point x="704" y="-388" type="curve" smooth="yes"/>
      <point x="1128" y="-388" type="line" smooth="yes"/>
      <point x="1173" y="-388"/>
      <point x="1191" y="-370"/>
      <point x="1191" y="-320" type="curve" smooth="yes"/>
      <point x="1191" y="-270"/>
      <point x="1173" y="-252"/>
      <point x="1128" y="-252" type="curve" smooth="yes"/>
      <point x="1026" y="-252" type="line"/>
      <point x="1026" y="788" type="line"/>
      <point x="1108" y="788" type="line" smooth="yes"/>
      <point x="1153" y="788"/>
      <point x="1171" y="806"/>
      <point x="1171" y="856" type="curve" smooth="yes"/>
      <point x="1171" y="906"/>
      <point x="1153" y="924"/>
      <point x="1108" y="924" type="curve" smooth="yes"/>
      <point x="949" y="924" type="line" smooth="yes"/>
      <point x="904" y="924"/>
      <point x="886" y="906"/>
      <point x="886" y="856" type="curve" smooth="yes"/>
      <point x="886" y="776" type="line"/>
      <point x="804" y="883"/>
      <point x="692" y="946"/>
      <point x="559" y="946" type="curve" smooth="yes"/>
    </contour>
    <contour>
      <point x="746" y="798"/>
      <point x="876" y="674"/>
      <point x="876" y="462" type="curve" smooth="yes"/>
      <point x="876" y="250"/>
      <point x="746" y="126"/>
      <point x="569" y="126" type="curve" smooth="yes"/>
      <point x="388" y="126"/>
      <point x="285" y="266"/>
      <point x="285" y="462" type="curve" smooth="yes"/>
      <point x="285" y="658"/>
      <point x="388" y="798"/>
      <point x="569" y="798" type="curve" smooth="yes"/>
    </contour>
  </outline>
</glyph>
<glyph name="r" format="1">
  <advance width="1228"/>
  <unicode hex="0072"/>
  <outline>
    <contour>
      <point x="768" y="946"/>
      <point x="605" y="832"/>
      <point x="507" y="654" type="curve"/>
      <point x="507" y="856" type="line" smooth="yes"/>
      <point x="507" y="906"/>
      <point x="489" y="924"/>
      <point x="444" y="924" type="curve" smooth="yes"/>
      <point x="240" y="924" type="line" smooth="yes"/>
      <point x="195" y="924"/>
      <point x="177" y="906"/>
      <point x="177" y="856" type="curve" smooth="yes"/>
      <point x="177" y="806"/>
      <point x="195" y="788"/>
      <point x="240" y="788" type="curve" smooth="yes"/>
      <point x="367" y="788" type="line"/>
      <point x="367" y="136" type="line"/>
      <point x="210" y="136" type="line" smooth="yes"/>
      <point x="165" y="136"/>
      <point x="147" y="118"/>
      <point x="147" y="68" type="curve" smooth="yes"/>
      <point x="147" y="18"/>
      <point x="165" y="0"/>
      <point x="210" y="0" type="curve" smooth="yes"/>
      <point x="854" y="0" type="line" smooth="yes"/>
      <point x="899" y="0"/>
      <point x="917" y="18"/>
      <point x="917" y="68" type="curve" smooth="yes"/>
      <point x="917" y="118"/>
      <point x="899" y="136"/>
      <point x="854" y="136" type="curve" smooth="yes"/>
      <point x="517" y="136" type="line"/>
      <point x="517" y="330" type="line" smooth="yes"/>
      <point x="517" y="573"/>
      <point x="725" y="780"/>
      <point x="906" y="780" type="curve" smooth="yes"/>
      <point x="943" y="780"/>
      <point x="978" y="771"/>
      <point x="1011" y="753" type="curve" smooth="yes"/>
      <point x="1049" y="731"/>
      <point x="1079" y="754"/>
      <point x="1097" y="802" type="curve" smooth="yes"/>
      <point x="1115" y="851"/>
      <point x="1105" y="883"/>
      <point x="1066" y="906" type="curve" smooth="yes"/>
      <point x="1020" y="933"/>
      <point x="971" y="946"/>
      <point x="920" y="946" type="curve" smooth="yes"/>
    </contour>
  </outline>
</glyph>
<glyph name="t" format="1">
  <advance width="1228"/>
  <unicode hex="0074"/>
  <outline>
    <contour>
      <point x="402" y="1209"/>
      <point x="383" y="1190"/>
      <point x="383" y="1144" type="curve" smooth="yes"/>
      <point x="383" y="844" type="line"/>
      <point x="180" y="844" type="line" smooth="yes"/>
      <point x="135" y="844"/>
      <point x="117" y="826"/>
      <point x="117" y="776" type="curve" smooth="yes"/>
      <point x="117" y="726"/>
      <point x="135" y="708"/>
      <point x="180" y="708" type="curve" smooth="yes"/>
      <point x="383" y="708" type="line"/>
      <point x="383" y="331" type="line" smooth="yes"/>
      <point x="383" y="102"/>
      <point x="478" y="-22"/>
      <point x="710" y="-22" type="curve" smooth="yes"/>
      <point x="825" y="-22"/>
      <point x="963" y="27"/>
      <point x="1063" y="90" type="curve" smooth="yes"/>
      <point x="1096" y="111"/>
      <point x="1108" y="139"/>
      <point x="1083" y="187" type="curve" smooth="yes"/>
      <point x="1058" y="235"/>
      <point x="1024" y="243"/>
      <point x="994" y="223" type="curve" smooth="yes"/>
      <point x="907" y="166"/>
      <point x="803" y="124"/>
      <point x="710" y="124" type="curve" smooth="yes"/>
      <point x="576" y="124"/>
      <point x="533" y="197"/>
      <point x="533" y="344" type="curve" smooth="yes"/>
      <point x="533" y="708" type="line"/>
      <point x="944" y="708" type="line" smooth="yes"/>
      <point x="989" y="708"/>
      <point x="1007" y="726"/>
      <point x="1007" y="776" type="curve" smooth="yes"/>
      <point x="1007" y="826"/>
      <point x="989" y="844"/>
      <point x="944" y="844" type="curve" smooth="yes"/>
      <point x="533" y="844" type="line"/>
      <point x="533" y="1144" type="line" smooth="yes"/>
      <point x="533" y="1190"/>
      <point x="514" y="1209"/>
      <point x="458" y="1209" type="curve" smooth="yes"/>
    </contour>
  </outline>
</glyph>
<glyph name="x" format="1">
  <advance width="1228"/>
  <unicode hex="0078"/>
  <outline>
    <contour>
      <point x="781" y="924" type="line" smooth="yes"/>
      <point x="736" y="924"/>
      <point x="718" y="906"/>
      <point x="718" y="856" type="curve" smooth="yes"/>
      <point x="718" y="806"/>
      <point x="736" y="788"/>
      <point x="781" y="788" type="curve" smooth="yes"/>
      <point x="836" y="788" type="line"/>
      <point x="623" y="558" type="line"/>
      <point x="411" y="788" type="line"/>
      <point x="487" y="788" type="line" smooth="yes"/>
      <point x="532" y="788"/>
      <point x="550" y="806"/>
      <point x="550" y="856" type="curve" smooth="yes"/>
      <point x="550" y="906"/>
      <point x="532" y="924"/>
      <point x="487" y="924" type="curve" smooth="yes"/>
      <point x="143" y="924" type="line" smooth="yes"/>
      <point x="98" y="924"/>
      <point x="80" y="906"/>
      <point x="80" y="856" type="curve" smooth="yes"/>
      <point x="80" y="806"/>
      <point x="98" y="788"/>
      <point x="143" y="788" type="curve" smooth="yes"/>
      <point x="214" y="788" type="line"/>
      <point x="508" y="477" type="line"/>
      <point x="183" y="136" type="line"/>
      <point x="133" y="136" type="line" smooth="yes"/>
      <point x="88" y="136"/>
      <point x="70" y="118"/>
      <point x="70" y="68" type="curve" smooth="yes"/>
      <point x="70" y="18"/>
      <point x="88" y="0"/>
      <point x="133" y="0" type="curve" smooth="yes"/>
      <point x="447" y="0" type="line" smooth="yes"/>
      <point x="492" y="0"/>
      <point x="510" y="18"/>
      <point x="510" y="68" type="curve" smooth="yes"/>
      <point x="510" y="118"/>
      <point x="492" y="136"/>
      <point x="447" y="136" type="curve" smooth="yes"/>
      <point x="368" y="136" type="line"/>
      <point x="607" y="394" type="line"/>
      <point x="847" y="136" type="line"/>
      <point x="751" y="136" type="line" smooth="yes"/>
      <point x="706" y="136"/>
      <point x="688" y="118"/>
      <point x="688" y="68" type="curve" smooth="yes"/>
      <point x="688" y="18"/>
      <point x="706" y="0"/>
      <point x="751" y="0" type="curve" smooth="yes"/>
      <point x="1095" y="0" type="line" smooth="yes"/>
      <point x="1140" y="0"/>
      <point x="1158" y="18"/>
      <point x="1158" y="68" type="curve" smooth="yes"/>
      <point x="1158" y="118"/>
      <point x="1140" y="136"/>
      <point x="1095" y="136" type="curve" smooth="yes"/>
      <point x="1044" y="136" type="line"/>
      <point x="723" y="475" type="line"/>
      <point x="1020" y="788" type="line"/>
      <point x="1085" y="788" type="line" smooth="yes"/>
      <point x="1130" y="788"/>
      <point x="1148" y="806"/>
      <point x="1148" y="856" type="curve" smooth="yes"/>
      <point x="1148" y="906"/>
      <point x="1130" y="924"/>
      <point x="1085" y="924" type="curve" smooth="yes"/>
    </contour>
  </outline>
</glyph>
<glyph name="y" format="1">
  <advance width="1228"/>
  <unicode hex="0079"/>
  <outline>
    <contour>
      <point x="801" y="924" type="line" smooth="yes"/>
      <point x="756" y="924"/>
      <point x="738" y="906"/>
      <point x="738" y="856" type="curve" smooth="yes"/>
      <point x="738" y="806"/>
      <point x="756" y="788"/>
      <point x="801" y="788" type="curve" smooth="yes"/>
      <point x="890" y="788" type="line"/>
      <point x="621" y="226" type="line"/>
      <point x="339" y="788" type="line"/>
      <point x="467" y="788" type="line" smooth="yes"/>
      <point x="512" y="788"/>
      <point x="530" y="806"/>
      <point x="530" y="856" type="curve" smooth="yes"/>
      <point x="530" y="906"/>
      <point x="512" y="924"/>
      <point x="467" y="924" type="curve" smooth="yes"/>
      <point x="113" y="924" type="line" smooth="yes"/>
      <point x="68" y="924"/>
      <point x="50" y="906"/>
      <point x="50" y="856" type="curve" smooth="yes"/>
      <point x="50" y="806"/>
      <point x="68" y="788"/>
      <point x="113" y="788" type="curve" smooth="yes"/>
      <point x="176" y="788" type="line"/>
      <point x="542" y="70" type="line"/>
      <point x="411" y="-195"/>
      <point x="354" y="-249"/>
      <point x="169" y="-259" type="curve" smooth="yes"/>
      <point x="133" y="-261"/>
      <point x="112" y="-285"/>
      <point x="117" y="-343" type="curve" smooth="yes"/>
      <point x="122" y="-396"/>
      <point x="150" y="-411"/>
      <point x="189" y="-410" type="curve" smooth="yes"/>
      <point x="409" y="-402"/>
      <point x="517" y="-310"/>
      <point x="644" y="-50" type="curve" smooth="yes"/>
      <point x="1053" y="788" type="line"/>
      <point x="1115" y="788" type="line" smooth="yes"/>
      <point x="1160" y="788"/>
      <point x="1178" y="806"/>
      <point x="1178" y="856" type="curve" smooth="yes"/>
      <point x="1178" y="906"/>
      <point x="1160" y="924"/>
      <point x="1115" y="924" type="curve" smooth="yes"/>
    </contour>
  </outline>
</glyph>
<glyph name="z" format="1">
  <advance width="1228"/>
  <unicode hex="007A"/>
  <outline>
    <contour>
      <point x="261" y="924" type="line" smooth="yes"/>
      <point x="216" y="924"/>
      <point x="198" y="906"/>
      <point x="198" y="856" type="curve" smooth="yes"/>
      <point x="198" y="639" type="line" smooth="yes"/>
      <point x="198" y="593"/>
      <point x="217" y="574"/>
      <point x="273" y="574" type="curve" smooth="yes"/>
      <point x="329" y="574"/>
      <point x="348" y="593"/>
      <point x="348" y="639" type="curve" smooth="yes"/>
      <point x="348" y="788" type="line"/>
      <point x="803" y="788" type="line"/>
      <point x="192" y="113" type="line" smooth="yes"/>
      <point x="182" y="102"/>
      <point x="178" y="87"/>
      <point x="178" y="68" type="curve" smooth="yes"/>
      <point x="178" y="18"/>
      <point x="196" y="0"/>
      <point x="241" y="0" type="curve" smooth="yes"/>
      <point x="987" y="0" type="line" smooth="yes"/>
      <point x="1032" y="0"/>
      <point x="1050" y="18"/>
      <point x="1050" y="68" type="curve" smooth="yes"/>
      <point x="1050" y="308" type="line" smooth="yes"/>
      <point x="1050" y="354"/>
      <point x="1031" y="373"/>
      <point x="975" y="373" type="curve" smooth="yes"/>
      <point x="919" y="373"/>
      <point x="900" y="354"/>
      <point x="900" y="308" type="curve" smooth="yes"/>
      <point x="900" y="136" type="line"/>
      <point x="415" y="136" type="line"/>
      <point x="1025" y="810" type="line" smooth="yes"/>
      <point x="1034" y="820"/>
      <point x="1040" y="835"/>
      <point x="1040" y="856" type="curve" smooth="yes"/>
      <point x="1040" y="906"/>
      <point x="1022" y="924"/>
      <point x="977" y="924" type="curve" smooth="yes"/>
    </contour>
  </outline>
</glyph>
<glyph name="braceleft" format="1">
  <advance width="1228"/>
  <unicode hex="007B"/>
  <outline>
    <contour>
      <point x="648" y="1372"/>
      <point x="486" y="1240"/>
      <point x="505" y="959" type="curve" smooth="yes"/>
      <point x="510" y="885" type="line" smooth="yes"/>
      <point x="521" y="717"/>
      <point x="443" y="613"/>
      <point x="240" y="613" type="curve" smooth="yes"/>
      <point x="195" y="613"/>
      <point x="177" y="593"/>
      <point x="177" y="541" type="curve" smooth="yes"/>
      <point x="177" y="489"/>
      <point x="195" y="469"/>
      <point x="240" y="469" type="curve" smooth="yes"/>
      <point x="453" y="469"/>
      <point x="531" y="376"/>
      <point x="516" y="203" type="curve" smooth="yes"/>
      <point x="505" y="80" type="line" smooth="yes"/>
      <point x="480" y="-201"/>
      <point x="648" y="-333"/>
      <point x="927" y="-333" type="curve" smooth="yes"/>
      <point x="972" y="-333"/>
      <point x="990" y="-313"/>
      <point x="990" y="-261" type="curve" smooth="yes"/>
      <point x="990" y="-209"/>
      <point x="972" y="-189"/>
      <point x="927" y="-189" type="curve" smooth="yes"/>
      <point x="725" y="-189"/>
      <point x="642" y="-105"/>
      <point x="655" y="92" type="curve" smooth="yes"/>
      <point x="663" y="213" type="line" smooth="yes"/>
      <point x="674" y="374"/>
      <point x="609" y="481"/>
      <point x="425" y="536" type="curve"/>
      <point x="425" y="546" type="line"/>
      <point x="595" y="615"/>
      <point x="665" y="715"/>
      <point x="658" y="875" type="curve" smooth="yes"/>
      <point x="655" y="947" type="line" smooth="yes"/>
      <point x="647" y="1143"/>
      <point x="715" y="1228"/>
      <point x="927" y="1228" type="curve" smooth="yes"/>
      <point x="972" y="1228"/>
      <point x="990" y="1248"/>
      <point x="990" y="1300" type="curve" smooth="yes"/>
      <point x="990" y="1352"/>
      <point x="972" y="1372"/>
      <point x="927" y="1372" type="curve" smooth="yes"/>
    </contour>
  </outline>
</glyph>
<glyph name="bar" format="1">
  <advance width="1228"/>
  <unicode hex="007C"/>
  <outline>
    <contour>
      <point x="558" y="1394"/>
      <point x="539" y="1375"/>
      <point x="539" y="1329" type="curve" smooth="yes"/>
      <point x="539" y="-290" type="line" smooth="yes"/>
      <point x="539" y="-336"/>
      <point x="558" y="-355"/>
      <point x="614" y="-355" type="curve" smooth="yes"/>
      <point x="670" y="-355"/>
      <point x="689" y="-336"/>
      <point x="689" y="-290" type="curve" smooth="yes"/>
      <point x="689" y="1329" type="line" smooth="yes"/>
      <point x="689" y="1375"/>
      <point x="670" y="1394"/>
      <point x="614" y="1394" type="curve" smooth="yes"/>
    </contour>
  </outline>
</glyph>
<glyph name="yen" format="1">
  <advance width="1228"/>
  <unicode hex="00A5"/>
  <outline>
    <contour>
      <point x="801" y="1187" type="line" smooth="yes"/>
      <point x="756" y="1187"/>
      <point x="738" y="1169"/>
      <point x="738" y="1119" type="curve" smooth="yes"/>
      <point x="738" y="1069"/>
      <point x="756" y="1051"/>
      <point x="801" y="1051" type="curve" smooth="yes"/>
      <point x="866" y="1051" type="line"/>
      <point x="614" y="642" type="line"/>
      <point x="364" y="1051" type="line"/>
      <point x="457" y="1051" type="line" smooth="yes"/>
      <point x="502" y="1051"/>
      <point x="520" y="1069"/>
      <point x="520" y="1119" type="curve" smooth="yes"/>
      <point x="520" y="1169"/>
      <point x="502" y="1187"/>
      <point x="457" y="1187" type="curve" smooth="yes"/>
      <point x="123" y="1187" type="line" smooth="yes"/>
      <point x="78" y="1187"/>
      <point x="60" y="1169"/>
      <point x="60" y="1119" type="curve" smooth="yes"/>
      <point x="60" y="1069"/>
      <point x="78" y="1051"/>
      <point x="123" y="1051" type="curve" smooth="yes"/>
      <point x="193" y="1051" type="line"/>
      <point x="336" y="820" type="line"/>
      <point x="213" y="820" type="line" smooth="yes"/>
      <point x="168" y="820"/>
      <point x="150" y="802"/>
      <point x="150" y="752" type="curve" smooth="yes"/>
      <point x="150" y="702"/>
      <point x="168" y="684"/>
      <point x="213" y="684" type="curve" smooth="yes"/>
      <point x="420" y="684" type="line"/>
      <point x="528" y="510" type="line"/>
      <point x="233" y="510" type="line" smooth="yes"/>
      <point x="188" y="510"/>
      <point x="170" y="492"/>
      <point x="170" y="442" type="curve" smooth="yes"/>
      <point x="170" y="392"/>
      <point x="188" y="374"/>
      <point x="233" y="374" type="curve" smooth="yes"/>
      <point x="539" y="374" type="line"/>
      <point x="539" y="136" type="line"/>
      <point x="313" y="136" type="line" smooth="yes"/>
      <point x="268" y="136"/>
      <point x="250" y="118"/>
      <point x="250" y="68" type="curve" smooth="yes"/>
      <point x="250" y="18"/>
      <point x="268" y="0"/>
      <point x="313" y="0" type="curve" smooth="yes"/>
      <point x="915" y="0" type="line" smooth="yes"/>
      <point x="960" y="0"/>
      <point x="978" y="18"/>
      <point x="978" y="68" type="curve" smooth="yes"/>
      <point x="978" y="118"/>
      <point x="960" y="136"/>
      <point x="915" y="136" type="curve" smooth="yes"/>
      <point x="689" y="136" type="line"/>
      <point x="689" y="374" type="line"/>
      <point x="995" y="374" type="line" smooth="yes"/>
      <point x="1040" y="374"/>
      <point x="1058" y="392"/>
      <point x="1058" y="442" type="curve" smooth="yes"/>
      <point x="1058" y="492"/>
      <point x="1040" y="510"/>
      <point x="995" y="510" type="curve" smooth="yes"/>
      <point x="700" y="510" type="line"/>
      <point x="808" y="684" type="line"/>
      <point x="1015" y="684" type="line" smooth="yes"/>
      <point x="1060" y="684"/>
      <point x="1078" y="702"/>
      <point x="1078" y="752" type="curve" smooth="yes"/>
      <point x="1078" y="802"/>
      <point x="1060" y="820"/>
      <point x="1015" y="820" type="curve" smooth="yes"/>
      <point x="893" y="820" type="line"/>
      <point x="1037" y="1051" type="line"/>
      <point x="1105" y="1051" type="line" smooth="yes"/>
      <point x="1150" y="1051"/>
      <point x="1168" y="1069"/>
      <point x="1168" y="1119" type="curve" smooth="yes"/>
      <point x="1168" y="1169"/>
      <point x="1150" y="1187"/>
      <point x="1105" y="1187" type="curve" smooth="yes"/>
    </contour>
  </outline>
</glyph>
<glyph name="copyright" format="1">
  <advance width="1228"/>
  <unicode hex="00A9"/>
  <outline>
    <contour>
      <point x="274" y="1209"/>
      <point x="36" y="937"/>
      <point x="36" y="594" type="curve" smooth="yes"/>
      <point x="36" y="251"/>
      <point x="274" y="-22"/>
      <point x="614" y="-22" type="curve" smooth="yes"/>
      <point x="954" y="-22"/>
      <point x="1192" y="251"/>
      <point x="1192" y="594" type="curve" smooth="yes"/>
      <point x="1192" y="937"/>
      <point x="954" y="1209"/>
      <point x="614" y="1209" type="curve" smooth="yes"/>
    </contour>
    <contour>
      <point x="447" y="937"/>
      <point x="315" y="809"/>
      <point x="315" y="593" type="curve" smooth="yes"/>
      <point x="315" y="377"/>
      <point x="447" y="249"/>
      <point x="629" y="249" type="curve" smooth="yes"/>
      <point x="688" y="249"/>
      <point x="753" y="263"/>
      <point x="809" y="289" type="curve" smooth="yes"/>
      <point x="848" y="307"/>
      <point x="859" y="333"/>
      <point x="843" y="375" type="curve" smooth="yes"/>
      <point x="827" y="417"/>
      <point x="802" y="422"/>
      <point x="769" y="407" type="curve" smooth="yes"/>
      <point x="721" y="385"/>
      <point x="680" y="375"/>
      <point x="629" y="375" type="curve" smooth="yes"/>
      <point x="528" y="375"/>
      <point x="448" y="448"/>
      <point x="448" y="593" type="curve" smooth="yes"/>
      <point x="448" y="738"/>
      <point x="528" y="811"/>
      <point x="629" y="811" type="curve" smooth="yes"/>
      <point x="680" y="811"/>
      <point x="721" y="801"/>
      <point x="769" y="779" type="curve" smooth="yes"/>
      <point x="802" y="764"/>
      <point x="827" y="769"/>
      <point x="843" y="811" type="curve" smooth="yes"/>
      <point x="859" y="853"/>
      <point x="848" y="879"/>
      <point x="809" y="897" type="curve" smooth="yes"/>
      <point x="753" y="923"/>
      <point x="688" y="937"/>
      <point x="629" y="937" type="curve" smooth="yes"/>
    </contour>
    <contour>
      <point x="885" y="1089"/>
      <point x="1070" y="880"/>
      <point x="1070" y="594" type="curve" smooth="yes"/>
      <point x="1070" y="308"/>
      <point x="885" y="98"/>
      <point x="614" y="98" type="curve" smooth="yes"/>
      <point x="343" y="98"/>
      <point x="158" y="308"/>
      <point x="158" y="594" type="curve" smooth="yes"/>
      <point x="158" y="880"/>
      <point x="343" y="1089"/>
      <point x="614" y="1089" type="curve" smooth="yes"/>
    </contour>
  </outline>
</glyph>
<glyph name="macron" format="1">
  <advance width="1228"/>
  <unicode hex="00AF"/>
  <outline>
    <contour>
      <point x="353" y="1250" type="line" smooth="yes"/>
      <point x="308" y="1250"/>
      <point x="290" y="1230"/>
      <point x="290" y="1178" type="curve" smooth="yes"/>
      <point x="290" y="1126"/>
      <point x="308" y="1106"/>
      <point x="353" y="1106" type="curve" smooth="yes"/>
      <point x="875" y="1106" type="line" smooth="yes"/>
      <point x="920" y="1106"/>
      <point x="938" y="1126"/>
      <point x="938" y="1178" type="curve" smooth="yes"/>
      <point x="938" y="1230"/>
      <point x="920" y="1250"/>
      <point x="875" y="1250" type="curve" smooth="yes"/>
    </contour>
  </outline>
</glyph>
<glyph name="plusminus" format="1">
  <advance width="1228"/>
  <unicode hex="00B1"/>
  <outline>
    <contour>
      <point x="564" y="1126"/>
      <point x="546" y="1108"/>
      <point x="546" y="1063" type="curve" smooth="yes"/>
      <point x="546" y="810" type="line"/>
      <point x="233" y="810" type="line" smooth="yes"/>
      <point x="188" y="810"/>
      <point x="170" y="792"/>
      <point x="170" y="742" type="curve" smooth="yes"/>
      <point x="170" y="692"/>
      <point x="188" y="674"/>
      <point x="233" y="674" type="curve" smooth="yes"/>
      <point x="546" y="674" type="line"/>
      <point x="546" y="421" type="line" smooth="yes"/>
      <point x="546" y="376"/>
      <point x="564" y="358"/>
      <point x="614" y="358" type="curve" smooth="yes"/>
      <point x="664" y="358"/>
      <point x="682" y="376"/>
      <point x="682" y="421" type="curve" smooth="yes"/>
      <point x="682" y="674" type="line"/>
      <point x="995" y="674" type="line" smooth="yes"/>
      <point x="1040" y="674"/>
      <point x="1058" y="692"/>
      <point x="1058" y="742" type="curve" smooth="yes"/>
      <point x="1058" y="792"/>
      <point x="1040" y="810"/>
      <point x="995" y="810" type="curve" smooth="yes"/>
      <point x="682" y="810" type="line"/>
      <point x="682" y="1063" type="line" smooth="yes"/>
      <point x="682" y="1108"/>
      <point x="664" y="1126"/>
      <point x="614" y="1126" type="curve" smooth="yes"/>
    </contour>
    <contour>
      <point x="233" y="250" type="line" smooth="yes"/>
      <point x="188" y="250"/>
      <point x="170" y="232"/>
      <point x="170" y="182" type="curve" smooth="yes"/>
      <point x="170" y="132"/>
      <point x="188" y="114"/>
      <point x="233" y="114" type="curve" smooth="yes"/>
      <point x="995" y="114" type="line" smooth="yes"/>
      <point x="1040" y="114"/>
      <point x="1058" y="132"/>
      <point x="1058" y="182" type="curve" smooth="yes"/>
      <point x="1058" y="232"/>
      <point x="1040" y="250"/>
      <point x="995" y="250" type="curve" smooth="yes"/>
    </contour>
  </outline>
</glyph>
<glyph name="acute" format="1">
  <advance width="1228"/>
  <unicode hex="00B4"/>
  <outline>
    <contour>
      <point x="433" y="1146" type="line" smooth="yes"/>
      <point x="408" y="1127"/>
      <point x="413" y="1095"/>
      <point x="441" y="1063" type="curve" smooth="yes"/>
      <point x="467" y="1034"/>
      <point x="493" y="1033"/>
      <point x="519" y="1048" type="curve" smooth="yes"/>
      <point x="893" y="1267" type="line" smooth="yes"/>
      <point x="921" y="1283"/>
      <point x="927" y="1321"/>
      <point x="885" y="1374" type="curve" smooth="yes"/>
      <point x="848" y="1420"/>
      <point x="811" y="1424"/>
      <point x="781" y="1402" type="curve" smooth="yes"/>
    </contour>
  </outline>
</glyph>
<glyph name="cedilla" format="1">
  <advance width="1228"/>
  <unicode hex="00B8"/>
  <outline>
    <contour>
      <point x="531" y="28" type="line"/>
      <point x="531" y="-177" type="line" smooth="yes"/>
      <point x="531" y="-212"/>
      <point x="549" y="-222"/>
      <point x="567" y="-221" type="curve" smooth="yes"/>
      <point x="680" y="-214"/>
      <point x="720" y="-237"/>
      <point x="720" y="-285" type="curve" smooth="yes"/>
      <point x="720" y="-327"/>
      <point x="677" y="-349"/>
      <point x="611" y="-349" type="curve" smooth="yes"/>
      <point x="544" y="-349"/>
      <point x="470" y="-331"/>
      <point x="418" y="-311" type="curve" smooth="yes"/>
      <point x="393" y="-302"/>
      <point x="373" y="-318"/>
      <point x="359" y="-354" type="curve" smooth="yes"/>
      <point x="345" y="-389"/>
      <point x="349" y="-412"/>
      <point x="374" y="-424" type="curve" smooth="yes"/>
      <point x="443" y="-456"/>
      <point x="532" y="-472"/>
      <point x="621" y="-472" type="curve" smooth="yes"/>
      <point x="788" y="-472"/>
      <point x="866" y="-393"/>
      <point x="866" y="-281" type="curve" smooth="yes"/>
      <point x="866" y="-187"/>
      <point x="805" y="-111"/>
      <point x="663" y="-113" type="curve"/>
      <point x="663" y="28" type="line"/>
    </contour>
  </outline>
</glyph>
<glyph name="onesuperior" format="1">
  <advance width="1228"/>
  <unicode hex="00B9"/>
  <outline>
    <contour>
      <point x="335" y="1176" type="line" smooth="yes"/>
      <point x="301" y="1159"/>
      <point x="302" y="1131"/>
      <point x="323" y="1096" type="curve" smooth="yes"/>
      <point x="344" y="1060"/>
      <point x="367" y="1054"/>
      <point x="400" y="1071" type="curve" smooth="yes"/>
      <point x="629" y="1190" type="line"/>
      <point x="569" y="1246" type="line"/>
      <point x="569" y="608" type="line"/>
      <point x="365" y="608" type="line" smooth="yes"/>
      <point x="333" y="608"/>
      <point x="315" y="591"/>
      <point x="315" y="546" type="curve" smooth="yes"/>
      <point x="315" y="501"/>
      <point x="333" y="483"/>
      <point x="365" y="483" type="curve" smooth="yes"/>
      <point x="898" y="483" type="line" smooth="yes"/>
      <point x="930" y="483"/>
      <point x="947" y="501"/>
      <point x="947" y="546" type="curve" smooth="yes"/>
      <point x="947" y="591"/>
      <point x="930" y="608"/>
      <point x="898" y="608" type="curve" smooth="yes"/>
      <point x="704" y="608" type="line"/>
      <point x="704" y="1292" type="line" smooth="yes"/>
      <point x="704" y="1330"/>
      <point x="668" y="1344"/>
      <point x="636" y="1328" type="curve" smooth="yes"/>
    </contour>
  </outline>
</glyph>
<glyph name="ordmasculine" format="1">
  <advance width="1228"/>
  <unicode hex="00BA"/>
  <outline>
    <contour>
      <point x="398" y="1209"/>
      <point x="235" y="1053"/>
      <point x="235" y="837" type="curve" smooth="yes"/>
      <point x="235" y="620"/>
      <point x="398" y="465"/>
      <point x="614" y="465" type="curve" smooth="yes"/>
      <point x="830" y="465"/>
      <point x="993" y="620"/>
      <point x="993" y="837" type="curve" smooth="yes"/>
      <point x="993" y="1053"/>
      <point x="830" y="1209"/>
      <point x="614" y="1209" type="curve" smooth="yes"/>
    </contour>
    <contour>
      <point x="758" y="1077"/>
      <point x="853" y="976"/>
      <point x="853" y="837" type="curve" smooth="yes"/>
      <point x="853" y="697"/>
      <point x="758" y="597"/>
      <point x="614" y="597" type="curve" smooth="yes"/>
      <point x="471" y="597"/>
      <point x="375" y="697"/>
      <point x="375" y="837" type="curve" smooth="yes"/>
      <point x="375" y="976"/>
      <point x="471" y="1077"/>
      <point x="614" y="1077" type="curve" smooth="yes"/>
    </contour>
  </outline>
</glyph>
<glyph name="AE" format="1">
  <advance width="1228"/>
  <unicode hex="00C6"/>
  <outline>
    <contour>
      <point x="294" y="1187" type="line" smooth="yes"/>
      <point x="249" y="1187"/>
      <point x="231" y="1169"/>
      <point x="231" y="1119" type="curve" smooth="yes"/>
      <point x="231" y="1069"/>
      <point x="249" y="1051"/>
      <point x="294" y="1051" type="curve" smooth="yes"/>
      <point x="393" y="1051" type="line"/>
      <point x="113" y="136" type="line"/>
      <point x="63" y="136" type="line" smooth="yes"/>
      <point x="18" y="136"/>
      <point x="0" y="118"/>
      <point x="0" y="68" type="curve" smooth="yes"/>
      <point x="0" y="18"/>
      <point x="18" y="0"/>
      <point x="63" y="0" type="curve" smooth="yes"/>
      <point x="357" y="0" type="line" smooth="yes"/>
      <point x="402" y="0"/>
      <point x="420" y="18"/>
      <point x="420" y="68" type="curve" smooth="yes"/>
      <point x="420" y="118"/>
      <point x="402" y="136"/>
      <point x="357" y="136" type="curve" smooth="yes"/>
      <point x="269" y="136" type="line"/>
      <point x="341" y="374" type="line"/>
      <point x="566" y="374" type="line"/>
      <point x="566" y="68" type="line" smooth="yes"/>
      <point x="566" y="18"/>
      <point x="584" y="0"/>
      <point x="629" y="0" type="curve" smooth="yes"/>
      <point x="1075" y="0" type="line" smooth="yes"/>
      <point x="1120" y="0"/>
      <point x="1138" y="18"/>
      <point x="1138" y="68" type="curve" smooth="yes"/>
      <point x="1138" y="365" type="line" smooth="yes"/>
      <point x="1138" y="411"/>
      <point x="1119" y="430"/>
      <point x="1063" y="430" type="curve" smooth="yes"/>
      <point x="1007" y="430"/>
      <point x="988" y="411"/>
      <point x="988" y="365" type="curve" smooth="yes"/>
      <point x="988" y="136" type="line"/>
      <point x="716" y="136" type="line"/>
      <point x="716" y="549" type="line"/>
      <point x="908" y="549" type="line" smooth="yes"/>
      <point x="953" y="549"/>
      <point x="971" y="567"/>
      <point x="971" y="617" type="curve" smooth="yes"/>
      <point x="971" y="667"/>
      <point x="953" y="685"/>
      <point x="908" y="685" type="curve" smooth="yes"/>
      <point x="716" y="685" type="line"/>
      <point x="716" y="1051" type="line"/>
      <point x="976" y="1051" type="line"/>
      <point x="976" y="865" type="line" smooth="yes"/>
      <point x="976" y="819"/>
      <point x="995" y="800"/>
      <point x="1051" y="800" type="curve" smooth="yes"/>
      <point x="1107" y="800"/>
      <point x="1126" y="819"/>
      <point x="1126" y="865" type="curve" smooth="yes"/>
      <point x="1126" y="1119" type="line" smooth="yes"/>
      <point x="1126" y="1169"/>
      <point x="1108" y="1187"/>
      <point x="1063" y="1187" type="curve" smooth="yes"/>
    </contour>
    <contour>
      <point x="566" y="510" type="line"/>
      <point x="382" y="510" type="line"/>
      <point x="546" y="1051" type="line"/>
      <point x="566" y="1051" type="line"/>
    </contour>
  </outline>
</glyph>
<glyph name="Eth" format="1">
  <advance width="1228"/>
  <unicode hex="00D0"/>
  <outline>
    <contour>
      <point x="113" y="680" type="line" smooth="yes"/>
      <point x="68" y="680"/>
      <point x="50" y="662"/>
      <point x="50" y="612" type="curve" smooth="yes"/>
      <point x="50" y="562"/>
      <point x="68" y="544"/>
      <point x="113" y="544" type="curve" smooth="yes"/>
      <point x="595" y="544" type="line" smooth="yes"/>
      <point x="640" y="544"/>
      <point x="658" y="562"/>
      <point x="658" y="612" type="curve" smooth="yes"/>
      <point x="658" y="662"/>
      <point x="640" y="680"/>
      <point x="595" y="680" type="curve" smooth="yes"/>
    </contour>
    <component base="D"/>
  </outline>
</glyph>
<glyph name="Thorn" format="1">
  <advance width="1228"/>
  <unicode hex="00DE"/>
  <outline>
    <contour>
      <point x="173" y="1187" type="line" smooth="yes"/>
      <point x="128" y="1187"/>
      <point x="110" y="1169"/>
      <point x="110" y="1119" type="curve" smooth="yes"/>
      <point x="110" y="1069"/>
      <point x="128" y="1051"/>
      <point x="173" y="1051" type="curve" smooth="yes"/>
      <point x="329" y="1051" type="line"/>
      <point x="329" y="136" type="line"/>
      <point x="173" y="136" type="line" smooth="yes"/>
      <point x="128" y="136"/>
      <point x="110" y="118"/>
      <point x="110" y="68" type="curve" smooth="yes"/>
      <point x="110" y="18"/>
      <point x="128" y="0"/>
      <point x="173" y="0" type="curve" smooth="yes"/>
      <point x="695" y="0" type="line" smooth="yes"/>
      <point x="740" y="0"/>
      <point x="758" y="18"/>
      <point x="758" y="68" type="curve" smooth="yes"/>
      <point x="758" y="118"/>
      <point x="740" y="136"/>
      <point x="695" y="136" type="curve" smooth="yes"/>
      <point x="479" y="136" type="line"/>
      <point x="479" y="273" type="line"/>
      <point x="710" y="273" type="line" smooth="yes"/>
      <point x="950" y="273"/>
      <point x="1072" y="413"/>
      <point x="1072" y="598" type="curve" smooth="yes"/>
      <point x="1072" y="784"/>
      <point x="950" y="927"/>
      <point x="710" y="927" type="curve" smooth="yes"/>
      <point x="479" y="927" type="line"/>
      <point x="479" y="1051" type="line"/>
      <point x="695" y="1051" type="line" smooth="yes"/>
      <point x="740" y="1051"/>
      <point x="758" y="1069"/>
      <point x="758" y="1119" type="curve" smooth="yes"/>
      <point x="758" y="1169"/>
      <point x="740" y="1187"/>
      <point x="695" y="1187" type="curve" smooth="yes"/>
    </contour>
    <contour>
      <point x="846" y="791"/>
      <point x="914" y="709"/>
      <point x="914" y="598" type="curve" smooth="yes"/>
      <point x="914" y="479"/>
      <point x="836" y="409"/>
      <point x="689" y="409" type="curve" smooth="yes"/>
      <point x="479" y="409" type="line"/>
      <point x="479" y="791" type="line"/>
      <point x="689" y="791" type="line" smooth="yes"/>
    </contour>
  </outline>
</glyph>
<glyph name="germandbls" format="1">
  <advance width="1228"/>
  <unicode hex="00DF"/>
  <outline>
    <contour>
      <point x="383" y="1317"/>
      <point x="245" y="1162"/>
      <point x="245" y="943" type="curve" smooth="yes"/>
      <point x="245" y="136" type="line"/>
      <point x="103" y="136" type="line" smooth="yes"/>
      <point x="58" y="136"/>
      <point x="40" y="118"/>
      <point x="40" y="68" type="curve" smooth="yes"/>
      <point x="40" y="18"/>
      <point x="58" y="0"/>
      <point x="103" y="0" type="curve" smooth="yes"/>
      <point x="332" y="0" type="line" smooth="yes"/>
      <point x="377" y="0"/>
      <point x="395" y="18"/>
      <point x="395" y="68" type="curve" smooth="yes"/>
      <point x="395" y="932" type="line" smooth="yes"/>
      <point x="395" y="1078"/>
      <point x="474" y="1172"/>
      <point x="612" y="1172" type="curve" smooth="yes"/>
      <point x="759" y="1172"/>
      <point x="838" y="1094"/>
      <point x="838" y="971" type="curve" smooth="yes"/>
      <point x="838" y="854"/>
      <point x="770" y="772"/>
      <point x="637" y="759" type="curve" smooth="yes"/>
      <point x="592" y="755"/>
      <point x="574" y="736"/>
      <point x="574" y="688" type="curve" smooth="yes"/>
      <point x="574" y="640"/>
      <point x="592" y="619"/>
      <point x="637" y="619" type="curve" smooth="yes"/>
      <point x="792" y="619"/>
      <point x="893" y="527"/>
      <point x="893" y="362" type="curve" smooth="yes"/>
      <point x="893" y="209"/>
      <point x="791" y="126"/>
      <point x="625" y="126" type="curve" smooth="yes"/>
      <point x="579" y="126"/>
      <point x="561" y="104"/>
      <point x="561" y="55" type="curve" smooth="yes"/>
      <point x="561" y="-2"/>
      <point x="576" y="-22"/>
      <point x="644" y="-22" type="curve" smooth="yes"/>
      <point x="886" y="-22"/>
      <point x="1051" y="120"/>
      <point x="1051" y="360" type="curve" smooth="yes"/>
      <point x="1051" y="525"/>
      <point x="962" y="648"/>
      <point x="820" y="702" type="curve"/>
      <point x="925" y="757"/>
      <point x="994" y="845"/>
      <point x="994" y="971" type="curve" smooth="yes"/>
      <point x="994" y="1164"/>
      <point x="866" y="1317"/>
      <point x="616" y="1317" type="curve" smooth="yes"/>
    </contour>
  </outline>
</glyph>
<glyph name="divide" format="1">
  <advance width="1228"/>
  <unicode hex="00F7"/>
  <outline>
    <contour>
      <point x="540" y="340"/>
      <point x="509" y="322"/>
      <point x="509" y="277" type="curve" smooth="yes"/>
      <point x="509" y="173" type="line" smooth="yes"/>
      <point x="509" y="128"/>
      <point x="540" y="110"/>
      <point x="614" y="110" type="curve" smooth="yes"/>
      <point x="688" y="110"/>
      <point x="719" y="128"/>
      <point x="719" y="173" type="curve" smooth="yes"/>
      <point x="719" y="277" type="line" smooth="yes"/>
      <point x="719" y="322"/>
      <point x="688" y="340"/>
      <point x="614" y="340" type="curve" smooth="yes"/>
    </contour>
    <contour>
      <point x="540" y="1055"/>
      <point x="509" y="1037"/>
      <point x="509" y="992" type="curve" smooth="yes"/>
      <point x="509" y="888" type="line" smooth="yes"/>
      <point x="509" y="843"/>
      <point x="540" y="825"/>
      <point x="614" y="825" type="curve" smooth="yes"/>
      <point x="688" y="825"/>
      <point x="719" y="843"/>
      <point x="719" y="888" type="curve" smooth="yes"/>
      <point x="719" y="992" type="line" smooth="yes"/>
      <point x="719" y="1037"/>
      <point x="688" y="1055"/>
      <point x="614" y="1055" type="curve" smooth="yes"/>
    </contour>
    <component base="minus"/>
  </outline>
</glyph>
<glyph name="oslash" format="1">
  <advance width="1228"/>
  <unicode hex="00F8"/>
  <outline>
    <contour>
      <point x="108" y="71" type="line" smooth="yes"/>
      <point x="75" y="39"/>
      <point x="76" y="11"/>
      <point x="110" y="-24" type="curve" smooth="yes"/>
      <point x="144" y="-59"/>
      <point x="172" y="-61"/>
      <point x="205" y="-29" type="curve" smooth="yes"/>
      <point x="1119" y="852" type="line" smooth="yes"/>
      <point x="1153" y="884"/>
      <point x="1152" y="913"/>
      <point x="1118" y="948" type="curve" smooth="yes"/>
      <point x="1084" y="983"/>
      <point x="1055" y="985"/>
      <point x="1022" y="953" type="curve" smooth="yes"/>
    </contour>
    <component base="o"/>
  </outline>
</glyph>
<glyph name="thorn" format="1">
  <advance width="1228"/>
  <unicode hex="00FE"/>
  <outline>
    <contour>
      <point x="120" y="1312" type="line" smooth="yes"/>
      <point x="75" y="1312"/>
      <point x="57" y="1294"/>
      <point x="57" y="1244" type="curve" smooth="yes"/>
      <point x="57" y="1194"/>
      <point x="75" y="1176"/>
      <point x="120" y="1176" type="curve" smooth="yes"/>
      <point x="202" y="1176" type="line"/>
      <point x="202" y="-252" type="line"/>
      <point x="100" y="-252" type="line" smooth="yes"/>
      <point x="55" y="-252"/>
      <point x="37" y="-270"/>
      <point x="37" y="-320" type="curve" smooth="yes"/>
      <point x="37" y="-370"/>
      <point x="55" y="-388"/>
      <point x="100" y="-388" type="curve" smooth="yes"/>
      <point x="524" y="-388" type="line" smooth="yes"/>
      <point x="569" y="-388"/>
      <point x="587" y="-370"/>
      <point x="587" y="-320" type="curve" smooth="yes"/>
      <point x="587" y="-270"/>
      <point x="569" y="-252"/>
      <point x="524" y="-252" type="curve" smooth="yes"/>
      <point x="352" y="-252" type="line"/>
      <point x="352" y="143" type="line"/>
      <point x="432" y="41"/>
      <point x="536" y="-22"/>
      <point x="669" y="-22" type="curve" smooth="yes"/>
      <point x="916" y="-22"/>
      <point x="1101" y="160"/>
      <point x="1101" y="462" type="curve" smooth="yes"/>
      <point x="1101" y="764"/>
      <point x="916" y="946"/>
      <point x="669" y="946" type="curve" smooth="yes"/>
      <point x="536" y="946"/>
      <point x="432" y="883"/>
      <point x="352" y="781" type="curve"/>
      <point x="352" y="1244" type="line" smooth="yes"/>
      <point x="352" y="1294"/>
      <point x="334" y="1312"/>
      <point x="289" y="1312" type="curve" smooth="yes"/>
    </contour>
    <contour>
      <point x="840" y="798"/>
      <point x="943" y="658"/>
      <point x="943" y="462" type="curve" smooth="yes"/>
      <point x="943" y="266"/>
      <point x="840" y="126"/>
      <point x="659" y="126" type="curve" smooth="yes"/>
      <point x="482" y="126"/>
      <point x="352" y="250"/>
      <point x="352" y="462" type="curve" smooth="yes"/>
      <point x="352" y="674"/>
      <point x="482" y="798"/>
      <point x="659" y="798" type="curve" smooth="yes"/>
    </contour>
  </outline>
</glyph>
<glyph name="ij" format="1">
  <advance width="1228"/>
  <unicode hex="0133"/>
  <outline>
    <contour>
      <point x="700" y="924" type="line" smooth="yes"/>
      <point x="655" y="924"/>
      <point x="637" y="906"/>
      <point x="637" y="856" type="curve" smooth="yes"/>
      <point x="637" y="806"/>
      <point x="655" y="788"/>
      <point x="700" y="788" type="curve" smooth="yes"/>
      <point x="923" y="788" type="line"/>
      <point x="923" y="-44" type="line" smooth="yes"/>
      <point x="923" y="-191"/>
      <point x="880" y="-264"/>
      <point x="746" y="-264" type="curve" smooth="yes"/>
      <point x="667" y="-264"/>
      <point x="583" y="-237"/>
      <point x="508" y="-201" type="curve" smooth="yes"/>
      <point x="476" y="-186"/>
      <point x="444" y="-196"/>
      <point x="425" y="-247" type="curve" smooth="yes"/>
      <point x="406" y="-297"/>
      <point x="422" y="-325"/>
      <point x="457" y="-341" type="curve" smooth="yes"/>
      <point x="532" y="-376"/>
      <point x="639" y="-410"/>
      <point x="746" y="-410" type="curve" smooth="yes"/>
      <point x="978" y="-410"/>
      <point x="1073" y="-286"/>
      <point x="1073" y="-57" type="curve" smooth="yes"/>
      <point x="1073" y="856" type="line" smooth="yes"/>
      <point x="1073" y="906"/>
      <point x="1055" y="924"/>
      <point x="1010" y="924" type="curve" smooth="yes"/>
    </contour>
    <contour>
      <point x="160" y="924" type="line" smooth="yes"/>
      <point x="115" y="924"/>
      <point x="97" y="906"/>
      <point x="97" y="856" type="curve" smooth="yes"/>
      <point x="97" y="806"/>
      <point x="115" y="788"/>
      <point x="160" y="788" type="curve" smooth="yes"/>
      <point x="283" y="788" type="line"/>
      <point x="283" y="136" type="line"/>
      <point x="120" y="136" type="line" smooth="yes"/>
      <point x="75" y="136"/>
      <point x="57" y="118"/>
      <point x="57" y="68" type="curve" smooth="yes"/>
      <point x="57" y="18"/>
      <point x="75" y="0"/>
      <point x="120" y="0" type="curve" smooth="yes"/>
      <point x="604" y="0" type="line" smooth="yes"/>
      <point x="649" y="0"/>
      <point x="667" y="18"/>
      <point x="667" y="68" type="curve" smooth="yes"/>
      <point x="667" y="118"/>
      <point x="649" y="136"/>
      <point x="604" y="136" type="curve" smooth="yes"/>
      <point x="433" y="136" type="line"/>
      <point x="433" y="856" type="line" smooth="yes"/>
      <point x="433" y="906"/>
      <point x="415" y="924"/>
      <point x="370" y="924" type="curve" smooth="yes"/>
    </contour>
    <component base="dotaccent" xOffset="-276"/>
    <component base="dotaccent" xOffset="364"/>
  </outline>
</glyph>
<glyph name="oe" format="1">
  <advance width="1228"/>
  <unicode hex="0153"/>
  <outline>
    <contour>
      <point x="749" y="946"/>
      <point x="667" y="899"/>
      <point x="613" y="806" type="curve"/>
      <point x="564" y="897"/>
      <point x="488" y="946"/>
      <point x="382" y="946" type="curve" smooth="yes"/>
      <point x="175" y="946"/>
      <point x="70" y="769"/>
      <point x="70" y="462" type="curve" smooth="yes"/>
      <point x="70" y="155"/>
      <point x="175" y="-22"/>
      <point x="382" y="-22" type="curve" smooth="yes"/>
      <point x="487" y="-22"/>
      <point x="564" y="26"/>
      <point x="613" y="116" type="curve"/>
      <point x="667" y="23"/>
      <point x="750" y="-22"/>
      <point x="853" y="-22" type="curve" smooth="yes"/>
      <point x="948" y="-22"/>
      <point x="1038" y="14"/>
      <point x="1112" y="84" type="curve" smooth="yes"/>
      <point x="1144" y="114"/>
      <point x="1149" y="149"/>
      <point x="1118" y="187" type="curve" smooth="yes"/>
      <point x="1087" y="225"/>
      <point x="1048" y="226"/>
      <point x="1023" y="201" type="curve" smooth="yes"/>
      <point x="967" y="147"/>
      <point x="917" y="123"/>
      <point x="853" y="123" type="curve" smooth="yes"/>
      <point x="764" y="123"/>
      <point x="693" y="199"/>
      <point x="689" y="440" type="curve"/>
      <point x="1088" y="440" type="line" smooth="yes"/>
      <point x="1133" y="440"/>
      <point x="1151" y="457"/>
      <point x="1151" y="502" type="curve"/>
      <point x="1144" y="769"/>
      <point x="1065" y="946"/>
      <point x="853" y="946" type="curve" smooth="yes"/>
    </contour>
    <contour>
      <point x="487" y="798"/>
      <point x="536" y="697"/>
      <point x="536" y="462" type="curve" smooth="yes"/>
      <point x="536" y="227"/>
      <point x="487" y="126"/>
      <point x="382" y="126" type="curve" smooth="yes"/>
      <point x="277" y="126"/>
      <point x="228" y="227"/>
      <point x="228" y="462" type="curve" smooth="yes"/>
      <point x="228" y="697"/>
      <point x="277" y="798"/>
      <point x="382" y="798" type="curve" smooth="yes"/>
    </contour>
    <contour>
      <point x="946" y="801"/>
      <point x="985" y="717"/>
      <point x="994" y="580" type="curve"/>
      <point x="694" y="580" type="line"/>
      <point x="710" y="739"/>
      <point x="763" y="801"/>
      <point x="855" y="801" type="curve" smooth="yes"/>
    </contour>
  </outline>
</glyph>
<glyph name="Tbar" format="1">
  <advance width="1228"/>
  <unicode hex="0166"/>
  <outline>
    <contour>
      <point x="185" y="1187" type="line" smooth="yes"/>
      <point x="140" y="1187"/>
      <point x="122" y="1169"/>
      <point x="122" y="1119" type="curve" smooth="yes"/>
      <point x="122" y="742" type="line" smooth="yes"/>
      <point x="122" y="696"/>
      <point x="141" y="677"/>
      <point x="197" y="677" type="curve" smooth="yes"/>
      <point x="253" y="677"/>
      <point x="272" y="696"/>
      <point x="272" y="742" type="curve" smooth="yes"/>
      <point x="272" y="1051" type="line"/>
      <point x="539" y="1051" type="line"/>
      <point x="539" y="586" type="line"/>
      <point x="333" y="586" type="line" smooth="yes"/>
      <point x="288" y="586"/>
      <point x="270" y="568"/>
      <point x="270" y="518" type="curve" smooth="yes"/>
      <point x="270" y="468"/>
      <point x="288" y="450"/>
      <point x="333" y="450" type="curve" smooth="yes"/>
      <point x="539" y="450" type="line"/>
      <point x="539" y="136" type="line"/>
      <point x="303" y="136" type="line" smooth="yes"/>
      <point x="258" y="136"/>
      <point x="240" y="118"/>
      <point x="240" y="68" type="curve" smooth="yes"/>
      <point x="240" y="18"/>
      <point x="258" y="0"/>
      <point x="303" y="0" type="curve" smooth="yes"/>
      <point x="925" y="0" type="line" smooth="yes"/>
      <point x="970" y="0"/>
      <point x="988" y="18"/>
      <point x="988" y="68" type="curve" smooth="yes"/>
      <point x="988" y="118"/>
      <point x="970" y="136"/>
      <point x="925" y="136" type="curve" smooth="yes"/>
      <point x="689" y="136" type="line"/>
      <point x="689" y="450" type="line"/>
      <point x="895" y="450" type="line" smooth="yes"/>
      <point x="940" y="450"/>
      <point x="958" y="468"/>
      <point x="958" y="518" type="curve" smooth="yes"/>
      <point x="958" y="568"/>
      <point x="940" y="586"/>
      <point x="895" y="586" type="curve" smooth="yes"/>
      <point x="689" y="586" type="line"/>
      <point x="689" y="1051" type="line"/>
      <point x="956" y="1051" type="line"/>
      <point x="956" y="742" type="line" smooth="yes"/>
      <point x="956" y="696"/>
      <point x="975" y="677"/>
      <point x="1031" y="677" type="curve" smooth="yes"/>
      <point x="1087" y="677"/>
      <point x="1106" y="696"/>
      <point x="1106" y="742" type="curve" smooth="yes"/>
      <point x="1106" y="1119" type="line" smooth="yes"/>
      <point x="1106" y="1169"/>
      <point x="1088" y="1187"/>
      <point x="1043" y="1187" type="curve" smooth="yes"/>
    </contour>
  </outline>
</glyph>
<glyph name="dotlessj" format="1">
  <advance width="1228"/>
  <unicode hex="0237"/>
  <outline>
    <contour>
      <point x="330" y="924" type="line" smooth="yes"/>
      <point x="285" y="924"/>
      <point x="267" y="906"/>
      <point x="267" y="856" type="curve" smooth="yes"/>
      <point x="267" y="806"/>
      <point x="285" y="788"/>
      <point x="330" y="788" type="curve" smooth="yes"/>
      <point x="753" y="788" type="line"/>
      <point x="753" y="-44" type="line" smooth="yes"/>
      <point x="753" y="-191"/>
      <point x="710" y="-264"/>
      <point x="576" y="-264" type="curve" smooth="yes"/>
      <point x="483" y="-264"/>
      <point x="379" y="-222"/>
      <point x="292" y="-165" type="curve" smooth="yes"/>
      <point x="262" y="-145"/>
      <point x="228" y="-153"/>
      <point x="203" y="-201" type="curve" smooth="yes"/>
      <point x="178" y="-249"/>
      <point x="190" y="-277"/>
      <point x="223" y="-298" type="curve" smooth="yes"/>
      <point x="323" y="-361"/>
      <point x="461" y="-410"/>
      <point x="576" y="-410" type="curve" smooth="yes"/>
      <point x="808" y="-410"/>
      <point x="903" y="-286"/>
      <point x="903" y="-57" type="curve" smooth="yes"/>
      <point x="903" y="856" type="line" smooth="yes"/>
      <point x="903" y="906"/>
      <point x="885" y="924"/>
      <point x="840" y="924" type="curve" smooth="yes"/>
    </contour>
  </outline>
</glyph>
<glyph name="dotaccent" format="1">
  <advance width="1228"/>
  <unicode hex="02D9"/>
  <outline>
    <contour>
      <point x="538" y="1363"/>
      <point x="519" y="1344"/>
      <point x="519" y="1298" type="curve" smooth="yes"/>
      <point x="519" y="1168" type="line" smooth="yes"/>
      <point x="519" y="1122"/>
      <point x="538" y="1103"/>
      <point x="614" y="1103" type="curve" smooth="yes"/>
      <point x="690" y="1103"/>
      <point x="709" y="1122"/>
      <point x="709" y="1168" type="curve" smooth="yes"/>
      <point x="709" y="1298" type="line" smooth="yes"/>
      <point x="709" y="1344"/>
      <point x="690" y="1363"/>
      <point x="614" y="1363" type="curve" smooth="yes"/>
    </contour>
  </outline>
</glyph>
<glyph name="ogonek" format="1">
  <advance width="1228"/>
  <unicode hex="02DB"/>
  <outline>
    <contour>
      <point x="599" y="28" type="line"/>
      <point x="485" y="-69"/>
      <point x="411" y="-168"/>
      <point x="411" y="-281" type="curve" smooth="yes"/>
      <point x="411" y="-397"/>
      <point x="487" y="-472"/>
      <point x="611" y="-472" type="curve" smooth="yes"/>
      <point x="673" y="-472"/>
      <point x="729" y="-462"/>
      <point x="775" y="-446" type="curve" smooth="yes"/>
      <point x="804" y="-436"/>
      <point x="814" y="-414"/>
      <point x="807" y="-368" type="curve" smooth="yes"/>
      <point x="800" y="-324"/>
      <point x="783" y="-309"/>
      <point x="757" y="-316" type="curve" smooth="yes"/>
      <point x="721" y="-326"/>
      <point x="683" y="-333"/>
      <point x="644" y="-333" type="curve" smooth="yes"/>
      <point x="598" y="-333"/>
      <point x="567" y="-307"/>
      <point x="567" y="-260" type="curve" smooth="yes"/>
      <point x="567" y="-181"/>
      <point x="622" y="-98"/>
      <point x="764" y="28" type="curve"/>
    </contour>
  </outline>
</glyph>
<glyph name="tilde" format="1">
  <advance width="1228"/>
  <unicode hex="02DC"/>
  <outline>
    <contour>
      <point x="427" y="1315"/>
      <point x="351" y="1278"/>
      <point x="284" y="1192" type="curve" smooth="yes"/>
      <point x="266" y="1169"/>
      <point x="262" y="1142"/>
      <point x="291" y="1111" type="curve" smooth="yes"/>
      <point x="320" y="1080"/>
      <point x="349" y="1080"/>
      <point x="367" y="1098" type="curve" smooth="yes"/>
      <point x="409" y="1141"/>
      <point x="449" y="1166"/>
      <point x="493" y="1166" type="curve" smooth="yes"/>
      <point x="575" y="1166"/>
      <point x="635" y="1096"/>
      <point x="734" y="1096" type="curve" smooth="yes"/>
      <point x="801" y="1096"/>
      <point x="877" y="1133"/>
      <point x="944" y="1219" type="curve" smooth="yes"/>
      <point x="962" y="1242"/>
      <point x="966" y="1269"/>
      <point x="937" y="1300" type="curve" smooth="yes"/>
      <point x="908" y="1331"/>
      <point x="879" y="1331"/>
      <point x="861" y="1313" type="curve" smooth="yes"/>
      <point x="819" y="1270"/>
      <point x="779" y="1245"/>
      <point x="735" y="1245" type="curve" smooth="yes"/>
      <point x="653" y="1245"/>
      <point x="593" y="1315"/>
      <point x="494" y="1315" type="curve" smooth="yes"/>
    </contour>
  </outline>
</glyph>
<glyph name="hungarumlaut" format="1">
  <advance width="1228"/>
  <unicode hex="02DD"/>
  <outline>
    <contour>
      <point x="630" y="1409"/>
      <point x="591" y="1402"/>
      <point x="564" y="1373" type="curve" smooth="yes"/>
      <point x="327" y="1120" type="line" smooth="yes"/>
      <point x="308" y="1100"/>
      <point x="317" y="1075"/>
      <point x="347" y="1056" type="curve" smooth="yes"/>
      <point x="381" y="1035"/>
      <point x="411" y="1034"/>
      <point x="434" y="1053" type="curve" smooth="yes"/>
      <point x="704" y="1286" type="line" smooth="yes"/>
      <point x="733" y="1311"/>
      <point x="733" y="1345"/>
      <point x="678" y="1379" type="curve" smooth="yes"/>
    </contour>
    <contour>
      <point x="1010" y="1409"/>
      <point x="971" y="1402"/>
      <point x="944" y="1373" type="curve" smooth="yes"/>
      <point x="707" y="1120" type="line" smooth="yes"/>
      <point x="688" y="1100"/>
      <point x="697" y="1075"/>
      <point x="727" y="1056" type="curve" smooth="yes"/>
      <point x="761" y="1035"/>
      <point x="791" y="1034"/>
      <point x="814" y="1053" type="curve" smooth="yes"/>
      <point x="1084" y="1286" type="line" smooth="yes"/>
      <point x="1113" y="1311"/>
      <point x="1113" y="1345"/>
      <point x="1058" y="1379" type="curve" smooth="yes"/>
    </contour>
  </outline>
</glyph>
<glyph name="commaaccent" format="1">
  <advance width="1228"/>
  <unicode hex="0326"/>
  <outline>
    <contour>
      <point x="576" y="-146" type="line" smooth="yes"/>
      <point x="554" y="-146"/>
      <point x="539" y="-157"/>
      <point x="534" y="-178" type="curve" smooth="yes"/>
      <point x="471" y="-465" type="line" smooth="yes"/>
      <point x="464" y="-497"/>
      <point x="476" y="-519"/>
      <point x="521" y="-525" type="curve" smooth="yes"/>
      <point x="564" y="-531"/>
      <point x="586" y="-515"/>
      <point x="597" y="-488" type="curve" smooth="yes"/>
      <point x="714" y="-197" type="line" smooth="yes"/>
      <point x="726" y="-168"/>
      <point x="719" y="-146"/>
      <point x="692" y="-146" type="curve" smooth="yes"/>
    </contour>
  </outline>
</glyph>
<glyph name="Delta" format="1">
  <advance width="1228"/>
  <unicode hex="0394"/>
  <outline>
    <contour>
      <point x="564" y="1209"/>
      <point x="530" y="1191"/>
      <point x="514" y="1144" type="curve" smooth="yes"/>
      <point x="153" y="106" type="line" smooth="yes"/>
      <point x="150" y="97"/>
      <point x="147" y="83"/>
      <point x="147" y="68" type="curve" smooth="yes"/>
      <point x="147" y="18"/>
      <point x="165" y="0"/>
      <point x="210" y="0" type="curve" smooth="yes"/>
      <point x="1017" y="0" type="line" smooth="yes"/>
      <point x="1062" y="0"/>
      <point x="1080" y="18"/>
      <point x="1080" y="68" type="curve" smooth="yes"/>
      <point x="1080" y="83"/>
      <point x="1078" y="97"/>
      <point x="1075" y="106" type="curve" smooth="yes"/>
      <point x="718" y="1144" type="line" smooth="yes"/>
      <point x="702" y="1190"/>
      <point x="670" y="1209"/>
      <point x="617" y="1209" type="curve" smooth="yes"/>
    </contour>
    <contour>
      <point x="907" y="136" type="line"/>
      <point x="321" y="136" type="line"/>
      <point x="615" y="1022" type="line"/>
      <point x="617" y="1022" type="line"/>
    </contour>
  </outline>
</glyph>
<glyph name="Omega" format="1">
  <advance width="1228"/>
  <unicode hex="03A9"/>
  <outline>
    <contour>
      <point x="299" y="1209"/>
      <point x="88" y="975"/>
      <point x="88" y="623" type="curve" smooth="yes"/>
      <point x="88" y="416"/>
      <point x="191" y="244"/>
      <point x="321" y="144" type="curve"/>
      <point x="144" y="144" type="line" smooth="yes"/>
      <point x="99" y="144"/>
      <point x="81" y="124"/>
      <point x="81" y="72" type="curve" smooth="yes"/>
      <point x="81" y="20"/>
      <point x="99" y="0"/>
      <point x="144" y="0" type="curve" smooth="yes"/>
      <point x="478" y="0" type="line" smooth="yes"/>
      <point x="523" y="0"/>
      <point x="541" y="21"/>
      <point x="541" y="78" type="curve" smooth="yes"/>
      <point x="541" y="109"/>
      <point x="537" y="133"/>
      <point x="524" y="142" type="curve" smooth="yes"/>
      <point x="349" y="254"/>
      <point x="246" y="413"/>
      <point x="246" y="623" type="curve" smooth="yes"/>
      <point x="246" y="893"/>
      <point x="392" y="1061"/>
      <point x="614" y="1061" type="curve" smooth="yes"/>
      <point x="836" y="1061"/>
      <point x="982" y="893"/>
      <point x="982" y="623" type="curve" smooth="yes"/>
      <point x="982" y="413"/>
      <point x="879" y="254"/>
      <point x="704" y="142" type="curve" smooth="yes"/>
      <point x="691" y="133"/>
      <point x="687" y="109"/>
      <point x="687" y="78" type="curve" smooth="yes"/>
      <point x="687" y="21"/>
      <point x="705" y="0"/>
      <point x="750" y="0" type="curve" smooth="yes"/>
      <point x="1084" y="0" type="line" smooth="yes"/>
      <point x="1129" y="0"/>
      <point x="1147" y="20"/>
      <point x="1147" y="72" type="curve" smooth="yes"/>
      <point x="1147" y="124"/>
      <point x="1129" y="144"/>
      <point x="1084" y="144" type="curve" smooth="yes"/>
      <point x="907" y="144" type="line"/>
      <point x="1037" y="244"/>
      <point x="1140" y="416"/>
      <point x="1140" y="623" type="curve" smooth="yes"/>
      <point x="1140" y="975"/>
      <point x="929" y="1209"/>
      <point x="614" y="1209" type="curve" smooth="yes"/>
    </contour>
  </outline>
</glyph>
<glyph name="emdash" format="1">
  <advance width="1228"/>
  <unicode hex="2014"/>
  <outline>
    <contour>
      <point x="33" y="650" type="line" smooth="yes"/>
      <point x="-12" y="650"/>
      <point x="-30" y="632"/>
      <point x="-30" y="582" type="curve" smooth="yes"/>
      <point x="-30" y="532"/>
      <point x="-12" y="514"/>
      <point x="33" y="514" type="curve" smooth="yes"/>
      <point x="1195" y="514" type="line" smooth="yes"/>
      <point x="1240" y="514"/>
      <point x="1258" y="532"/>
      <point x="1258" y="582" type="curve" smooth="yes"/>
      <point x="1258" y="632"/>
      <point x="1240" y="650"/>
      <point x="1195" y="650" type="curve" smooth="yes"/>
    </contour>
  </outline>
</glyph>
<glyph name="bullet" format="1">
  <advance width="1228"/>
  <unicode hex="2022"/>
  <outline>
    <contour>
      <point x="451" y="853"/>
      <point x="382" y="825"/>
      <point x="382" y="755" type="curve" smooth="yes"/>
      <point x="382" y="453" type="line" smooth="yes"/>
      <point x="382" y="383"/>
      <point x="451" y="355"/>
      <point x="614" y="355" type="curve" smooth="yes"/>
      <point x="777" y="355"/>
      <point x="846" y="383"/>
      <point x="846" y="453" type="curve" smooth="yes"/>
      <point x="846" y="755" type="line" smooth="yes"/>
      <point x="846" y="825"/>
      <point x="777" y="853"/>
      <point x="614" y="853" type="curve" smooth="yes"/>
    </contour>
  </outline>
</glyph>
<glyph name="fraction" format="1">
  <advance width="1228"/>
  <unicode hex="2044"/>
  <outline>
    <contour>
      <point x="125" y="289" type="line" smooth="yes"/>
      <point x="106" y="277"/>
      <point x="106" y="250"/>
      <point x="125" y="224" type="curve" smooth="yes"/>
      <point x="144" y="198"/>
      <point x="168" y="190"/>
      <point x="185" y="200" type="curve" smooth="yes"/>
      <point x="1103" y="761" type="line" smooth="yes"/>
      <point x="1122" y="773"/>
      <point x="1122" y="800"/>
      <point x="1103" y="826" type="curve" smooth="yes"/>
      <point x="1084" y="852"/>
      <point x="1060" y="860"/>
      <point x="1043" y="850" type="curve" smooth="yes"/>
    </contour>
  </outline>
</glyph>
<glyph name="foursuperior" format="1">
  <advance width="1228"/>
  <unicode hex="2074"/>
  <outline>
    <contour>
      <point x="683" y="1334"/>
      <point x="661" y="1318"/>
      <point x="638" y="1290" type="curve" smooth="yes"/>
      <point x="259" y="838" type="line" smooth="yes"/>
      <point x="247" y="822"/>
      <point x="242" y="808"/>
      <point x="242" y="785" type="curve" smooth="yes"/>
      <point x="242" y="730"/>
      <point x="265" y="707"/>
      <point x="296" y="707" type="curve" smooth="yes"/>
      <point x="672" y="707" type="line"/>
      <point x="672" y="523" type="line" smooth="yes"/>
      <point x="672" y="492"/>
      <point x="691" y="475"/>
      <point x="740" y="475" type="curve" smooth="yes"/>
      <point x="790" y="475"/>
      <point x="807" y="492"/>
      <point x="807" y="523" type="curve" smooth="yes"/>
      <point x="807" y="707" type="line"/>
      <point x="916" y="707" type="line" smooth="yes"/>
      <point x="947" y="707"/>
      <point x="964" y="725"/>
      <point x="964" y="770" type="curve" smooth="yes"/>
      <point x="964" y="815"/>
      <point x="947" y="832"/>
      <point x="916" y="832" type="curve" smooth="yes"/>
      <point x="807" y="832" type="line"/>
      <point x="807" y="1278" type="line" smooth="yes"/>
      <point x="807" y="1311"/>
      <point x="763" y="1334"/>
      <point x="719" y="1334" type="curve" smooth="yes"/>
    </contour>
    <contour>
      <point x="672" y="832" type="line"/>
      <point x="413" y="832" type="line"/>
      <point x="678" y="1151" type="line"/>
    </contour>
  </outline>
</glyph>
<glyph name="franc" format="1">
  <advance width="1228"/>
  <unicode hex="20A3"/>
  <outline>
    <contour>
      <point x="143" y="1187" type="line" smooth="yes"/>
      <point x="98" y="1187"/>
      <point x="80" y="1169"/>
      <point x="80" y="1119" type="curve" smooth="yes"/>
      <point x="80" y="1069"/>
      <point x="98" y="1051"/>
      <point x="143" y="1051" type="curve" smooth="yes"/>
      <point x="275" y="1051" type="line"/>
      <point x="275" y="136" type="line"/>
      <point x="143" y="136" type="line" smooth="yes"/>
      <point x="98" y="136"/>
      <point x="80" y="118"/>
      <point x="80" y="68" type="curve" smooth="yes"/>
      <point x="80" y="18"/>
      <point x="98" y="0"/>
      <point x="143" y="0" type="curve" smooth="yes"/>
      <point x="657" y="0" type="line" smooth="yes"/>
      <point x="702" y="0"/>
      <point x="720" y="18"/>
      <point x="720" y="68" type="curve" smooth="yes"/>
      <point x="720" y="118"/>
      <point x="702" y="136"/>
      <point x="657" y="136" type="curve" smooth="yes"/>
      <point x="425" y="136" type="line"/>
      <point x="425" y="564" type="line"/>
      <point x="770" y="564" type="line" smooth="yes"/>
      <point x="815" y="564"/>
      <point x="833" y="582"/>
      <point x="833" y="632" type="curve" smooth="yes"/>
      <point x="833" y="682"/>
      <point x="815" y="700"/>
      <point x="770" y="700" type="curve" smooth="yes"/>
      <point x="425" y="700" type="line"/>
      <point x="425" y="1051" type="line"/>
      <point x="960" y="1051" type="line"/>
      <point x="960" y="855" type="line" smooth="yes"/>
      <point x="960" y="809"/>
      <point x="979" y="790"/>
      <point x="1035" y="790" type="curve" smooth="yes"/>
      <point x="1091" y="790"/>
      <point x="1110" y="809"/>
      <point x="1110" y="855" type="curve" smooth="yes"/>
      <point x="1110" y="1119" type="line" smooth="yes"/>
      <point x="1110" y="1169"/>
      <point x="1092" y="1187"/>
      <point x="1047" y="1187" type="curve" smooth="yes"/>
    </contour>
    <contour>
      <point x="103" y="420" type="line" smooth="yes"/>
      <point x="58" y="420"/>
      <point x="40" y="402"/>
      <point x="40" y="352" type="curve" smooth="yes"/>
      <point x="40" y="302"/>
      <point x="58" y="284"/>
      <point x="103" y="284" type="curve" smooth="yes"/>
      <point x="865" y="284" type="line" smooth="yes"/>
      <point x="910" y="284"/>
      <point x="928" y="302"/>
      <point x="928" y="352" type="curve" smooth="yes"/>
      <point x="928" y="402"/>
      <point x="910" y="420"/>
      <point x="865" y="420" type="curve" smooth="yes"/>
    </contour>
  </outline>
</glyph>
<glyph name="radical" format="1">
  <advance width="1228"/>
  <unicode hex="221A"/>
  <outline>
    <contour>
      <point x="994" y="1207"/>
      <point x="969" y="1195"/>
      <point x="953" y="1151" type="curve" smooth="yes"/>
      <point x="609" y="182" type="line"/>
      <point x="428" y="622" type="line" smooth="yes"/>
      <point x="419" y="644"/>
      <point x="402" y="654"/>
      <point x="371" y="654" type="curve" smooth="yes"/>
      <point x="179" y="654" type="line" smooth="yes"/>
      <point x="134" y="654"/>
      <point x="116" y="634"/>
      <point x="116" y="582" type="curve" smooth="yes"/>
      <point x="116" y="530"/>
      <point x="134" y="510"/>
      <point x="179" y="510" type="curve" smooth="yes"/>
      <point x="312" y="510" type="line"/>
      <point x="505" y="43" type="line" smooth="yes"/>
      <point x="524" y="-3"/>
      <point x="556" y="-22"/>
      <point x="613" y="-22" type="curve" smooth="yes"/>
      <point x="670" y="-22"/>
      <point x="702" y="-4"/>
      <point x="719" y="43" type="curve" smooth="yes"/>
      <point x="1098" y="1103" type="line" smooth="yes"/>
      <point x="1114" y="1147"/>
      <point x="1101" y="1171"/>
      <point x="1047" y="1189" type="curve" smooth="yes"/>
    </contour>
  </outline>
</glyph>
<glyph name="infinity" format="1">
  <advance width="1228"/>
  <unicode hex="221E"/>
  <outline>
    <contour>
      <point x="769" y="871"/>
      <point x="685" y="781"/>
      <point x="614" y="682" type="curve"/>
      <point x="543" y="781"/>
      <point x="459" y="871"/>
      <point x="308" y="871" type="curve" smooth="yes"/>
      <point x="147" y="871"/>
      <point x="28" y="746"/>
      <point x="28" y="582" type="curve" smooth="yes"/>
      <point x="28" y="418"/>
      <point x="147" y="293"/>
      <point x="308" y="293" type="curve" smooth="yes"/>
      <point x="459" y="293"/>
      <point x="543" y="383"/>
      <point x="614" y="481" type="curve"/>
      <point x="685" y="383"/>
      <point x="769" y="293"/>
      <point x="920" y="293" type="curve" smooth="yes"/>
      <point x="1081" y="293"/>
      <point x="1200" y="418"/>
      <point x="1200" y="582" type="curve" smooth="yes"/>
      <point x="1200" y="746"/>
      <point x="1081" y="871"/>
      <point x="920" y="871" type="curve" smooth="yes"/>
    </contour>
    <contour>
      <point x="418" y="737"/>
      <point x="483" y="666"/>
      <point x="544" y="582" type="curve"/>
      <point x="483" y="497"/>
      <point x="418" y="427"/>
      <point x="311" y="427" type="curve" smooth="yes"/>
      <point x="221" y="427"/>
      <point x="166" y="495"/>
      <point x="166" y="582" type="curve" smooth="yes"/>
      <point x="166" y="669"/>
      <point x="221" y="737"/>
      <point x="311" y="737" type="curve" smooth="yes"/>
    </contour>
    <contour>
      <point x="1007" y="737"/>
      <point x="1062" y="669"/>
      <point x="1062" y="582" type="curve" smooth="yes"/>
      <point x="1062" y="495"/>
      <point x="1007" y="427"/>
      <point x="917" y="427" type="curve" smooth="yes"/>
      <point x="810" y="427"/>
      <point x="744" y="497"/>
      <point x="684" y="582" type="curve"/>
      <point x="744" y="666"/>
      <point x="810" y="737"/>
      <point x="917" y="737" type="curve" smooth="yes"/>
    </contour>
  </outline>
</glyph>
<glyph name="lessequal" format="1">
  <advance width="1228"/>
  <unicode hex="2264"/>
  <outline>
    <contour>
      <point x="222" y="830" type="line" smooth="yes"/>
      <point x="189" y="817"/>
      <point x="170" y="795"/>
      <point x="170" y="755" type="curve" smooth="yes"/>
      <point x="170" y="715"/>
      <point x="189" y="693"/>
      <point x="222" y="680" type="curve" smooth="yes"/>
      <point x="960" y="390" type="line" smooth="yes"/>
      <point x="1002" y="374"/>
      <point x="1030" y="382"/>
      <point x="1049" y="431" type="curve" smooth="yes"/>
      <point x="1069" y="482"/>
      <point x="1052" y="507"/>
      <point x="1009" y="523" type="curve" smooth="yes"/>
      <point x="396" y="755" type="line"/>
      <point x="1009" y="987" type="line" smooth="yes"/>
      <point x="1052" y="1003"/>
      <point x="1069" y="1028"/>
      <point x="1049" y="1079" type="curve" smooth="yes"/>
      <point x="1030" y="1128"/>
      <point x="1002" y="1136"/>
      <point x="960" y="1120" type="curve" smooth="yes"/>
    </contour>
    <contour>
      <point x="233" y="250" type="line" smooth="yes"/>
      <point x="188" y="250"/>
      <point x="170" y="232"/>
      <point x="170" y="182" type="curve" smooth="yes"/>
      <point x="170" y="132"/>
      <point x="188" y="114"/>
      <point x="233" y="114" type="curve" smooth="yes"/>
      <point x="995" y="114" type="line" smooth="yes"/>
      <point x="1040" y="114"/>
      <point x="1058" y="132"/>
      <point x="1058" y="182" type="curve" smooth="yes"/>
      <point x="1058" y="232"/>
      <point x="1040" y="250"/>
      <point x="995" y="250" type="curve" smooth="yes"/>
    </contour>
  </outline>
</glyph>
<glyph name="lozenge" format="1">
  <advance width="1228"/>
  <unicode hex="25CA"/>
  <outline>
    <contour>
      <point x="557" y="1209"/>
      <point x="533" y="1188"/>
      <point x="508" y="1144" type="curve" smooth="yes"/>
      <point x="213" y="623" type="line" smooth="yes"/>
      <point x="202" y="603"/>
      <point x="202" y="583"/>
      <point x="213" y="563" type="curve" smooth="yes"/>
      <point x="508" y="43" type="line" smooth="yes"/>
      <point x="533" y="-1"/>
      <point x="557" y="-22"/>
      <point x="614" y="-22" type="curve" smooth="yes"/>
      <point x="671" y="-22"/>
      <point x="695" y="-1"/>
      <point x="720" y="43" type="curve" smooth="yes"/>
      <point x="1014" y="563" type="line" smooth="yes"/>
      <point x="1025" y="583"/>
      <point x="1025" y="603"/>
      <point x="1014" y="623" type="curve" smooth="yes"/>
      <point x="720" y="1144" type="line" smooth="yes"/>
      <point x="695" y="1188"/>
      <point x="671" y="1209"/>
      <point x="614" y="1209" type="curve" smooth="yes"/>
    </contour>
    <contour>
      <point x="860" y="593" type="line"/>
      <point x="614" y="158" type="line"/>
      <point x="368" y="593" type="line"/>
      <point x="614" y="1029" type="line"/>
    </contour>
  </outline>
</glyph>
<glyph name="caron.alt" format="1">
  <advance width="1228"/>
  <outline>
    <contour>
      <point x="376" y="1312" type="line" smooth="yes"/>
      <point x="353" y="1312"/>
      <point x="339" y="1301"/>
      <point x="334" y="1280" type="curve" smooth="yes"/>
      <point x="252" y="918" type="line" smooth="yes"/>
      <point x="244" y="884"/>
      <point x="265" y="862"/>
      <point x="308" y="862" type="curve" smooth="yes"/>
      <point x="346" y="862"/>
      <point x="373" y="873"/>
      <point x="382" y="898" type="curve" smooth="yes"/>
      <point x="516" y="1261" type="line" smooth="yes"/>
      <point x="527" y="1290"/>
      <point x="520" y="1312"/>
      <point x="494" y="1312" type="curve" smooth="yes"/>
    </contour>
  </outline>
</glyph>
<glyph name="ellipsis.alt3" format="1">
  <advance width="1228"/>
  <outline>
    <contour>
      <point x="1422" y="244"/>
      <point x="1362" y="184"/>
      <point x="1362" y="111" type="curve" smooth="yes"/>
      <point x="1362" y="38"/>
      <point x="1422" y="-22"/>
      <point x="1495" y="-22" type="curve" smooth="yes"/>
      <point x="1568" y="-22"/>
      <point x="1628" y="38"/>
      <point x="1628" y="111" type="curve" smooth="yes"/>
      <point x="1628" y="184"/>
      <point x="1568" y="244"/>
      <point x="1495" y="244" type="curve" smooth="yes"/>
    </contour>
    <contour>
      <point x="340" y="244"/>
      <point x="280" y="184"/>
      <point x="280" y="111" type="curve" smooth="yes"/>
      <point x="280" y="38"/>
      <point x="340" y="-22"/>
      <point x="413" y="-22" type="curve" smooth="yes"/>
      <point x="486" y="-22"/>
      <point x="546" y="38"/>
      <point x="546" y="111" type="curve" smooth="yes"/>
      <point x="546" y="184"/>
      <point x="486" y="244"/>
      <point x="413" y="244" type="curve" smooth="yes"/>
    </contour>
    <contour>
      <point x="881" y="244"/>
      <point x="821" y="184"/>
      <point x="821" y="111" type="curve" smooth="yes"/>
      <point x="821" y="38"/>
      <point x="881" y="-22"/>
      <point x="954" y="-22" type="curve" smooth="yes"/>
      <point x="1027" y="-22"/>
      <point x="1087" y="38"/>
      <point x="1087" y="111" type="curve" smooth="yes"/>
      <point x="1087" y="184"/>
      <point x="1027" y="244"/>
      <point x="954" y="244" type="curve" smooth="yes"/>
    </contour>
  </outline>
</glyph>
<glyph name="emdash.alt3" format="1">
  <advance width="1228"/>
  <outline>
    <contour>
      <point x="347" y="650" type="line" smooth="yes"/>
      <point x="302" y="650"/>
      <point x="284" y="632"/>
      <point x="284" y="582" type="curve" smooth="yes"/>
      <point x="284" y="532"/>
      <point x="302" y="514"/>
      <point x="347" y="514" type="curve" smooth="yes"/>
      <point x="2109" y="514" type="line" smooth="yes"/>
      <point x="2154" y="514"/>
      <point x="2172" y="532"/>
      <point x="2172" y="582" type="curve" smooth="yes"/>
      <point x="2172" y="632"/>
      <point x="2154" y="650"/>
      <point x="2109" y="650" type="curve" smooth="yes"/>
    </contour>
  </outline>
</glyph>
<glyph name="period.squat" format="1">
  <advance width="1228"/>
  <outline>
    <contour>
      <point x="519" y="300"/>
      <point x="479" y="282"/>
      <point x="479" y="237" type="curve" smooth="yes"/>
      <point x="479" y="53" type="line" smooth="yes"/>
      <point x="479" y="8"/>
      <point x="519" y="-10"/>
      <point x="614" y="-10" type="curve" smooth="yes"/>
      <point x="709" y="-10"/>
      <point x="749" y="8"/>
      <point x="749" y="53" type="curve" smooth="yes"/>
      <point x="749" y="237" type="line" smooth="yes"/>
      <point x="749" y="282"/>
      <point x="709" y="300"/>
      <point x="614" y="300" type="curve" smooth="yes"/>
    </contour>
  </outline>
</glyph>
